<svg width="50" height="50" viewBox="0 0 50 50" fill="none" xmlns="http://www.w3.org/2000/svg">
<path d="M46.7906 15.5283L46.7945 15.4996C46.9244 14.8541 47.1738 14.2306 47.4641 13.642C47.7582 13.0447 48.11 12.4677 48.5402 11.9584C48.7635 11.6944 49.0367 11.3899 49.4129 11.3981C49.6082 11.4021 49.7938 11.4967 49.8912 11.6703C49.9754 11.8217 49.9872 12.003 49.9653 12.1718C49.8727 12.8882 49.4485 13.5258 48.9795 14.0553C48.479 14.6209 47.8942 15.1172 47.2651 15.5348C47.1885 15.5855 47.1118 15.6351 47.0339 15.6834C47.0153 15.6944 46.9946 15.7014 46.9734 15.7036C46.9514 15.7075 46.929 15.7063 46.9083 15.6997L46.8953 15.6942C46.8598 15.6817 46.8282 15.6585 46.8106 15.625C46.794 15.5934 46.7879 15.5601 46.7906 15.5283Z" fill="#9CDA96"/>
<path d="M47.0558 15.5283L47.0525 15.4996C46.9227 14.8541 46.6734 14.2306 46.3831 13.642C46.0884 13.0449 45.7369 12.4679 45.3065 11.9587C45.0834 11.6944 44.8102 11.3901 44.4341 11.3983C44.2388 11.4024 44.0529 11.4972 43.9562 11.6705C43.8715 11.8217 43.8597 12.0033 43.8817 12.1721C43.9743 12.8887 44.3984 13.5262 44.8674 14.0553C45.3687 14.621 45.9529 15.1172 46.5818 15.5353C46.6582 15.5857 46.7356 15.6354 46.8135 15.6834C46.8316 15.6949 46.8521 15.7014 46.8733 15.7038C46.8955 15.7077 46.9179 15.7067 46.9389 15.7L46.9517 15.6942C46.9874 15.6819 47.0185 15.6583 47.0363 15.625C47.0527 15.5939 47.059 15.5604 47.0558 15.5283Z" fill="#9CDA96"/>
<path d="M45.5618 21.4825L45.5724 21.4554C45.8567 20.8618 46.2515 20.319 46.6775 19.8194C47.1096 19.3128 47.5916 18.8399 48.1342 18.4515C48.4151 18.2504 48.7553 18.0218 49.1177 18.1221C49.306 18.1742 49.4628 18.3114 49.5141 18.5036C49.559 18.6712 49.5257 18.8498 49.463 19.0083C49.1973 19.68 48.6297 20.1936 48.0452 20.5917C47.4204 21.0171 46.7325 21.3551 46.0197 21.6054C45.9336 21.6358 45.8464 21.665 45.7588 21.6927C45.7386 21.6992 45.7171 21.7007 45.6957 21.698C45.6732 21.6959 45.6518 21.6893 45.6332 21.6778L45.6221 21.6691C45.591 21.6483 45.5664 21.618 45.5572 21.5813C45.549 21.5471 45.5515 21.5131 45.5618 21.4825Z" fill="#9CDA96"/>
<path d="M45.8191 21.5478L45.8227 21.5191C45.8553 20.8616 45.7668 20.1958 45.6296 19.5539C45.4907 18.9031 45.2915 18.2576 44.9993 17.6579C44.8481 17.3474 44.6578 16.9852 44.2909 16.9003C44.1011 16.8567 43.8973 16.9027 43.7611 17.0472C43.642 17.1733 43.5858 17.3464 43.5655 17.5152C43.4797 18.2325 43.7343 18.955 44.0591 19.5826C44.4056 20.2542 44.8503 20.8789 45.3581 21.4378C45.4196 21.5058 45.4823 21.5729 45.5459 21.6385C45.5604 21.6541 45.579 21.666 45.599 21.6734C45.6195 21.6821 45.6414 21.6867 45.6633 21.6852L45.6771 21.6833C45.7147 21.6797 45.7509 21.6647 45.7762 21.6368C45.7996 21.6105 45.8143 21.5796 45.8191 21.5478Z" fill="#9CDA96"/>
<path d="M42.9753 27.9027L42.99 27.8779C43.3787 27.3466 43.8665 26.8851 44.3772 26.4721C44.8944 26.0535 45.4557 25.6768 46.0597 25.395C46.373 25.2486 46.7491 25.0868 47.0874 25.2517C47.2627 25.3373 47.3917 25.5011 47.4069 25.6988C47.4199 25.8722 47.3551 26.0417 47.2642 26.1856C46.8796 26.7974 46.2276 27.1986 45.5799 27.4826C44.8879 27.786 44.1491 27.9919 43.4025 28.1076C43.3124 28.1216 43.2212 28.1344 43.1305 28.1455C43.1091 28.1482 43.0876 28.1457 43.0674 28.139C43.0457 28.133 43.0257 28.1228 43.0095 28.1079L42.9999 28.0973C42.9733 28.071 42.9545 28.0368 42.9524 27.9994C42.9509 27.9637 42.9591 27.9309 42.9753 27.9027Z" fill="#9CDA96"/>
<path d="M43.2157 28.0141L43.2248 27.9868C43.3772 27.3464 43.4119 26.6758 43.3955 26.0192C43.3784 25.3542 43.301 24.6832 43.1238 24.0398C43.0322 23.7071 42.9116 23.316 42.5665 23.1657C42.3874 23.0879 42.1791 23.0958 42.0182 23.2125C41.8784 23.3148 41.7916 23.4746 41.7404 23.6369C41.5242 24.3263 41.6421 25.0827 41.8458 25.7598C42.064 26.4832 42.3862 27.1786 42.7826 27.8217C42.8306 27.8995 42.8798 27.9769 42.9304 28.0534C42.9422 28.0712 42.9584 28.0859 42.9765 28.0973C42.995 28.1096 43.0158 28.1182 43.0375 28.1207L43.0515 28.1216C43.0891 28.1248 43.1274 28.1163 43.1575 28.0939C43.185 28.0724 43.2051 28.0445 43.2157 28.0141Z" fill="#9CDA96"/>
<path d="M39.0017 34.4073L39.0193 34.3847C39.4724 33.9067 40.0147 33.5108 40.5734 33.166C41.1401 32.8161 41.7441 32.5138 42.3792 32.3102C42.7088 32.2054 43.1021 32.0923 43.417 32.2989C43.5795 32.4057 43.6871 32.5846 43.6769 32.7831C43.6683 32.9562 43.5817 33.1161 43.4739 33.2477C43.0148 33.8057 42.3167 34.1206 41.6385 34.3208C40.9136 34.5337 40.1548 34.6446 39.3998 34.6648C39.3082 34.667 39.2163 34.6677 39.125 34.6675C39.1035 34.6675 39.0823 34.6622 39.063 34.653C39.0423 34.6444 39.0239 34.6321 39.0095 34.6147L39.0017 34.6034C38.9784 34.5735 38.9641 34.5375 38.9668 34.4999C38.9694 34.4645 38.9822 34.4331 39.0017 34.4073Z" fill="#9CDA96"/>
<path d="M39.2262 34.5481L39.2388 34.5218C39.4712 33.9058 39.5908 33.2453 39.6576 32.5923C39.7251 31.93 39.7333 31.2548 39.639 30.5949C39.5901 30.2527 39.5204 29.8493 39.1973 29.6561C39.0295 29.5563 38.8219 29.538 38.6475 29.6335C38.4956 29.7167 38.3893 29.8645 38.3181 30.0193C38.0163 30.6756 38.0372 31.4407 38.1535 32.1381C38.2776 32.8834 38.5094 33.614 38.8207 34.3024C38.8587 34.3856 38.8978 34.4686 38.9381 34.551C38.9475 34.5701 38.9617 34.5867 38.9781 34.6002C38.995 34.6149 39.0145 34.626 39.0357 34.6313L39.0497 34.634C39.0864 34.6417 39.1252 34.6383 39.158 34.6197C39.1886 34.6021 39.2115 34.5768 39.2262 34.5481Z" fill="#9CDA96"/>
<path d="M29.4777 42.1967C35.2481 39.7526 39.5773 34.9754 42.5039 29.5363C45.7439 23.5134 47.8385 16.4971 47.0681 9.6248C47.0448 9.41839 46.719 9.41622 46.7424 9.6248C47.5094 16.4701 45.408 23.3618 42.2227 29.3716C39.3601 34.7726 35.0133 39.5013 29.3128 41.9153C29.1201 41.997 29.286 42.2774 29.4777 42.1967Z" fill="#7CCF74"/>
<path d="M3.20698 15.5281L3.20361 15.4994C3.07364 14.8541 2.82432 14.2306 2.53376 13.6417C2.23958 13.0449 1.88778 12.4679 1.45761 11.9587C1.23457 11.6946 0.961131 11.3899 0.584974 11.3981C0.389662 11.4021 0.203753 11.4969 0.107061 11.6703C0.0224258 11.8217 0.0106106 12.0033 0.0325531 12.1718C0.125146 12.8885 0.549287 13.5262 1.01828 14.0553C1.51934 14.6207 2.10359 15.1172 2.73293 15.5348C2.80913 15.5855 2.88629 15.6349 2.96417 15.6834C2.9825 15.6947 3.00323 15.7012 3.02445 15.7038C3.04664 15.7075 3.06906 15.7065 3.0898 15.6995L3.10282 15.6942C3.13826 15.6817 3.16961 15.6583 3.18721 15.625C3.20385 15.5937 3.20988 15.5601 3.20698 15.5281Z" fill="#9CDA96"/>
<path d="M2.9415 15.5281L2.94488 15.4994C3.07484 14.8541 3.32441 14.2306 3.61472 13.6417C3.90914 13.0449 4.2607 12.4679 4.69087 11.9587C4.91416 11.6946 5.18735 11.3899 5.56375 11.3981C5.75906 11.4021 5.94473 11.4969 6.04142 11.6703C6.12606 11.8217 6.13787 12.0033 6.11593 12.1718C6.02334 12.8885 5.5992 13.5262 5.13045 14.0553C4.62914 14.6207 4.04489 15.1172 3.41555 15.5348C3.33936 15.5855 3.2622 15.6349 3.18431 15.6834C3.16599 15.6947 3.14549 15.7012 3.12427 15.7038C3.10185 15.7075 3.07966 15.7065 3.05893 15.6995L3.04567 15.6942C3.01046 15.6817 2.97887 15.6583 2.96151 15.625C2.94488 15.5937 2.93861 15.5601 2.9415 15.5281Z" fill="#9CDA96"/>
<path d="M4.43601 21.4827L4.42564 21.4554C4.14135 20.8618 3.74663 20.3188 3.32056 19.8194C2.88846 19.3128 2.40596 18.8397 1.86391 18.4515C1.58276 18.2501 1.24301 18.022 0.880115 18.1223C0.692036 18.1742 0.535063 18.3114 0.483944 18.5036C0.439094 18.6709 0.472129 18.8498 0.534822 19.0082C0.800543 19.6798 1.3684 20.1939 1.95265 20.5917C2.5774 21.0171 3.26558 21.3551 3.97811 21.6056C4.06443 21.6358 4.15148 21.665 4.23901 21.6927C4.25926 21.6992 4.28096 21.7007 4.30218 21.698C4.32437 21.6958 4.34607 21.6893 4.36463 21.6777L4.37573 21.6693C4.40707 21.6483 4.43167 21.6179 4.44059 21.5813C4.44903 21.5471 4.44662 21.5131 4.43601 21.4827Z" fill="#9CDA96"/>
<path d="M4.17872 21.5478L4.17511 21.5191C4.14255 20.8615 4.23129 20.1958 4.36825 19.5539C4.50714 18.9031 4.70631 18.2576 4.99855 17.6582C5.14974 17.3476 5.33999 16.985 5.70674 16.9006C5.89699 16.8564 6.1005 16.903 6.23698 17.0474C6.35585 17.1735 6.41204 17.3464 6.43229 17.5154C6.51813 18.2325 6.2635 18.955 5.93895 19.5828C5.59221 20.2539 5.14757 20.8787 4.64 21.4378C4.57851 21.5056 4.51582 21.5726 4.45216 21.6387C4.43745 21.6541 4.41913 21.6657 4.39911 21.6734C4.37838 21.6823 4.35643 21.6867 4.33449 21.6852L4.32051 21.6831C4.28313 21.6794 4.2472 21.6647 4.22188 21.6368C4.19801 21.6107 4.18379 21.5796 4.17872 21.5478Z" fill="#9CDA96"/>
<path d="M7.02281 27.9027L7.00762 27.8781C6.61916 27.3469 6.13136 26.8851 5.62114 26.4723C5.10344 26.0537 4.54234 25.6768 3.93832 25.395C3.62485 25.2486 3.24894 25.0868 2.91088 25.2517C2.73534 25.3373 2.60609 25.5011 2.59114 25.699C2.57788 25.8722 2.64323 26.0417 2.73365 26.1856C3.11825 26.7974 3.77073 27.1986 4.41816 27.4826C5.11019 27.786 5.84876 27.9919 6.59505 28.1076C6.68571 28.1216 6.77662 28.1344 6.86752 28.1455C6.88874 28.1482 6.91044 28.146 6.9307 28.1392C6.9524 28.133 6.97241 28.1228 6.98833 28.1079L6.99773 28.0973C7.02474 28.071 7.0433 28.0368 7.04547 27.9994C7.0474 27.9639 7.03896 27.9309 7.02281 27.9027Z" fill="#9CDA96"/>
<path d="M6.78192 28.0141L6.773 27.9868C6.62037 27.3462 6.58565 26.6758 6.60228 26.019C6.6194 25.354 6.69681 24.6832 6.87379 24.0401C6.96566 23.7071 7.08623 23.316 7.43128 23.1655C7.61019 23.0876 7.81877 23.0958 7.97936 23.2125C8.11945 23.3148 8.2065 23.4746 8.25738 23.6369C8.47343 24.3263 8.35552 25.0827 8.15176 25.7598C7.93379 26.4832 7.6114 27.1786 7.21523 27.8217C7.16724 27.8995 7.11781 27.9769 7.06742 28.0534C7.0556 28.0712 7.03945 28.0859 7.02136 28.097C7.00255 28.1096 6.98206 28.1182 6.96036 28.1207L6.94613 28.1214C6.90876 28.1248 6.87066 28.1163 6.84052 28.0936C6.81231 28.0724 6.79277 28.0445 6.78192 28.0141Z" fill="#9CDA96"/>
<path d="M10.9966 34.4073L10.9785 34.3849C10.5254 33.9067 9.98336 33.5108 9.42443 33.166C8.85802 32.8161 8.254 32.514 7.61863 32.3105C7.28925 32.2053 6.89598 32.0923 6.58131 32.2989C6.41831 32.406 6.31076 32.5846 6.32113 32.7831C6.32981 32.9562 6.41614 33.1163 6.52416 33.2477C6.98302 33.8057 7.68133 34.1209 8.35937 34.3207C9.08444 34.5337 9.84327 34.6446 10.5982 34.6648C10.6899 34.667 10.7815 34.6677 10.8731 34.6675C10.8948 34.6675 10.9158 34.6624 10.9351 34.6533C10.9558 34.6446 10.9744 34.632 10.9884 34.6149L10.9963 34.6033C11.0197 34.5737 11.0339 34.5375 11.0311 34.5001C11.0284 34.4645 11.0159 34.4331 10.9966 34.4073Z" fill="#9CDA96"/>
<path d="M10.7716 34.5481L10.7593 34.5218C10.5269 33.9058 10.407 33.2453 10.3405 32.5923C10.273 31.93 10.2645 31.2548 10.3588 30.5949C10.4077 30.2527 10.4774 29.8493 10.8008 29.6561C10.9684 29.5563 11.1762 29.538 11.3505 29.6335C11.5025 29.7167 11.6088 29.8645 11.6797 30.0193C11.9816 30.6756 11.9606 31.4407 11.8444 32.1381C11.7202 32.8834 11.4885 33.614 11.1772 34.3024C11.1393 34.3856 11.1 34.4686 11.0598 34.551C11.0501 34.5701 11.0364 34.5867 11.0197 34.6002C11.0028 34.6149 10.9833 34.626 10.9621 34.6313L10.9481 34.634C10.9115 34.6417 10.8726 34.6383 10.8398 34.6197C10.8092 34.6021 10.7863 34.5768 10.7716 34.5481Z" fill="#9CDA96"/>
<path d="M20.685 41.9153C14.9597 39.4907 10.679 34.7683 7.77561 29.3716C4.56139 23.3977 2.49132 16.4405 3.25569 9.6248C3.27908 9.41622 2.95307 9.41839 2.92993 9.6248C2.15591 16.5266 4.28289 23.4773 7.49421 29.5363C10.3793 34.9793 14.7748 39.7632 20.5206 42.1967C20.7118 42.2774 20.8779 41.997 20.685 41.9153Z" fill="#7CCF74"/>
<mask id="mask0_10_19275" style="mask-type:luminance" maskUnits="userSpaceOnUse" x="6" y="7" width="37" height="36">
<path d="M6.97531 7.12506H42.7778V42.8658H6.97531V7.12506Z" fill="white"/>
</mask>
<g mask="url(#mask0_10_19275)">
<path d="M42.7607 24.9968C42.7607 29.1712 41.3291 33.0118 38.9292 36.0537C36.0884 39.6551 31.8914 42.1373 27.1084 42.7302C26.38 42.8211 25.6378 42.8676 24.885 42.8676C15.013 42.8676 7.01003 34.8663 7.01003 24.9968C7.01003 21.426 8.05725 18.0999 9.8616 15.3091C10.3065 14.6211 10.7974 13.9653 11.3301 13.3465C13.1433 11.2396 15.4398 9.56012 18.0476 8.47939C19.5944 7.83895 21.2502 7.40927 22.9801 7.22625C23.6058 7.15946 24.2417 7.1257 24.885 7.1257C31.0559 7.1257 36.496 10.2514 39.708 15.0052C40.5146 16.1988 41.1803 17.4949 41.6823 18.8698C42.3799 20.7807 42.7607 22.844 42.7607 24.9968Z" fill="#5B84A9"/>
</g>
<mask id="mask1_10_19275" style="mask-type:luminance" maskUnits="userSpaceOnUse" x="6" y="7" width="36" height="36">
<path d="M6.97531 7.96295H41.5432V42.8658H6.97531V7.96295Z" fill="white"/>
</mask>
<g mask="url(#mask1_10_19275)">
<path d="M40.979 32.1798C39.2547 33.9815 37.1755 35.4444 34.8609 36.3821C32.6338 37.2844 30.1852 37.6598 27.7951 37.3664C25.298 37.0597 22.9143 36.06 20.9079 34.5474C18.9219 33.0502 17.2955 31.0998 16.122 28.9108C14.9626 26.7484 14.245 24.3622 14.0555 21.9152C13.8915 19.7977 14.0992 17.6406 14.6499 15.59C15.2057 13.5202 16.1297 11.5381 17.4699 9.85795C18.0138 9.17605 18.6285 8.55731 19.3027 8.0155C18.8771 8.15536 18.4582 8.31016 18.0474 8.48015C15.4396 9.5604 13.1431 11.2401 11.3301 13.3471C10.7974 13.9658 10.3062 14.6216 9.8616 15.3096C8.05701 18.1006 7.0098 21.4265 7.0098 24.9971C7.0098 34.8666 15.0128 42.8679 24.885 42.8679C25.6378 42.8679 26.38 42.8214 27.1079 42.7307C31.8914 42.1378 36.0885 39.6554 38.9287 36.0542C39.9829 34.7181 40.8497 33.2279 41.4911 31.6232C41.3238 31.8123 41.1533 31.998 40.979 32.1798Z" fill="#4B7FAB"/>
</g>
<mask id="mask2_10_19275" style="mask-type:luminance" maskUnits="userSpaceOnUse" x="6" y="15" width="22" height="28">
<path d="M6.97531 15.3087H27.1605V42.8658H6.97531V15.3087Z" fill="white"/>
</mask>
<g mask="url(#mask2_10_19275)">
<path d="M27.1082 42.7301C26.3802 42.821 25.6378 42.8675 24.8852 42.8675C15.013 42.8675 7.01003 34.8662 7.01003 24.9967C7.01003 21.4256 8.05725 18.1 9.86159 15.3089C9.94816 15.315 10.0342 15.3236 10.1203 15.3345C10.9698 15.444 11.7349 15.7806 12.4243 16.2816C13.0891 16.7663 13.702 17.352 14.4659 17.6811C15.7357 18.2285 17.3392 18.0134 18.4262 18.975C19.0507 19.5272 19.2342 20.3526 19.3863 21.1358C19.5428 21.9442 19.6984 22.8333 19.401 23.6297C19.1259 24.3606 18.5053 24.8014 17.9362 25.2935C17.6604 25.5329 17.3966 25.7921 17.222 26.1179C17.0438 26.448 16.9618 26.8186 16.8475 27.1733C16.7339 27.5263 16.5888 27.8774 16.3286 28.1487C16.1007 28.3852 15.8046 28.5364 15.4982 28.6476C14.9178 28.8573 14.1932 28.8991 13.7191 29.3307C13.0958 29.8959 13.3215 30.8691 13.471 31.5888C13.6367 32.3911 13.913 33.263 14.6328 33.7373C15.4516 34.2779 16.3961 33.8315 17.2422 33.5974C18.1819 33.337 19.1351 33.1299 20.0974 32.9743C21.6409 32.7265 23.5945 32.4318 24.8442 33.6203C25.3803 34.1301 25.6949 34.8602 25.7219 35.5966C25.7354 35.9694 25.6735 36.3506 25.5259 36.6928C25.3781 37.0364 25.1317 37.2821 24.8136 37.4711C24.3798 37.7291 23.5561 37.985 23.7951 38.6471C23.9022 38.9456 24.1319 39.1858 24.273 39.4662C24.3473 39.6152 24.4013 39.7705 24.4126 39.9357C24.4271 40.143 24.3516 40.3338 24.3022 40.5296C24.0948 41.3578 24.9998 41.8994 25.6486 42.1335C26.1133 42.3018 26.6715 42.446 27.1082 42.7301Z" fill="#9CCF31"/>
</g>
<path d="M18.7442 10.1104C18.663 10.2807 18.5142 10.402 18.3779 10.5261C18.0727 10.8032 17.9892 11.1446 18.0421 11.5468C18.1479 12.3464 18.6564 13.0548 18.5323 13.8896C18.4783 14.2547 18.2665 14.5918 17.9294 14.756C17.5656 14.9337 17.1376 14.9091 16.7576 14.7955C16.3216 14.6648 15.9409 14.4044 15.5273 14.2221C15.3111 14.1264 15.0837 14.0587 14.8469 14.043C14.5855 14.0239 14.3229 14.0452 14.0606 14.0362C13.1115 14.0051 12.2078 13.6871 11.3301 13.3471C13.1433 11.2396 15.4398 9.5602 18.0476 8.47995C18.2921 8.80234 18.5282 9.14401 18.7059 9.50546C18.8014 9.7015 18.8409 9.9079 18.7442 10.1104Z" fill="#9CCF31"/>
<mask id="mask3_10_19275" style="mask-type:luminance" maskUnits="userSpaceOnUse" x="21" y="7" width="19" height="12">
<path d="M21.7284 7.12506H39.7531V18.5803H21.7284V7.12506Z" fill="white"/>
</mask>
<g mask="url(#mask3_10_19275)">
<path d="M39.708 15.0052C38.9767 15.2546 38.2721 15.6568 37.6177 15.9835C36.8977 16.3416 36.1859 16.7211 35.4567 17.0579C35.13 17.2091 34.7818 17.3386 34.4167 17.327C34.0801 17.3181 33.7599 17.1944 33.4703 17.0273C33.1674 16.8542 32.8921 16.6357 32.6051 16.4385C32.3054 16.2333 31.9953 16.0418 31.6763 15.8661C31.352 15.6859 31.0173 15.5225 30.6761 15.3754C30.3696 15.2423 30.0475 15.0993 29.7193 15.0272C29.5901 14.9978 29.4309 14.9775 29.3039 15.0318C29.1739 15.0855 29.1413 15.2172 29.1189 15.3447C29.0514 15.7313 29.041 16.1342 29.0613 16.5263C29.0806 16.8971 29.1956 17.2822 29.1505 17.6516C29.118 17.932 28.967 18.1686 28.7305 18.321C28.2569 18.6262 27.6406 18.5406 27.1561 18.3188C26.5929 18.0615 26.1463 17.6 25.8032 17.0944C25.4244 16.5366 25.1789 15.9046 24.9421 15.276C24.8102 14.9247 24.6829 14.5707 24.5308 14.2271C24.3842 13.8927 24.1826 13.5864 24.0352 13.253C23.8978 12.9412 23.8898 12.621 24.0384 12.3111C24.1804 12.016 24.4285 11.791 24.6863 11.5996C24.9602 11.3977 25.2713 11.2244 25.4873 10.9565C25.6588 10.7443 25.7849 10.4086 25.6522 10.1473C25.3682 9.58857 24.5028 9.99776 24.0902 10.1371C23.561 10.3173 22.9299 10.4897 22.3946 10.2341C21.8224 9.96256 21.6488 9.27559 21.8133 8.70074C21.9886 8.08707 22.4964 7.6217 22.9801 7.22625C23.6058 7.15946 24.2417 7.1257 24.885 7.1257C31.0559 7.1257 36.4959 10.2514 39.708 15.0052Z" fill="#9CCF31"/>
</g>
<path d="M42.7604 24.9971C42.7604 29.1715 41.3289 33.0122 38.9289 36.054C38.5699 35.7786 38.1508 35.6349 37.6411 35.8056C37.1998 35.9546 36.8007 36.2269 36.3264 36.2676C35.7687 36.3149 35.3328 35.9192 34.9125 35.6132C34.5098 35.3205 33.9873 35.0444 33.8626 34.5226C33.7493 34.0483 33.9065 33.5585 33.9207 33.0809C33.9342 32.6485 33.8882 32.1887 33.6772 31.8024C33.4568 31.3956 33.0734 31.1627 32.6254 31.0805C32.1359 30.9903 31.6303 31.0487 31.1367 31.0455C30.6474 31.0409 30.1777 30.9633 29.7295 30.7624C29.307 30.5734 28.9207 30.2826 28.6227 29.9281C28.2803 29.5192 28.0857 29.0403 27.9121 28.5424C27.7317 28.0208 27.5403 27.5149 27.1906 27.0804C26.8789 26.6893 26.4779 26.4193 26.0923 26.1097C25.7174 25.809 25.4131 25.4381 25.3489 24.947C25.2855 24.4606 25.4466 23.9559 25.7388 23.566C26.3696 22.7267 27.4906 22.344 28.4732 22.1084C29.5626 21.8485 30.6896 21.786 31.8058 21.7795C32.9295 21.7725 34.0584 21.8449 35.1796 21.7814C35.6795 21.7523 36.197 21.6768 36.6428 21.4361C37.1062 21.1868 37.4115 20.7658 37.7394 20.3704C38.0674 19.9749 38.4457 19.6426 38.9019 19.4027C39.3468 19.1696 39.8341 19.0184 40.3284 18.9386C40.7791 18.8665 41.2307 18.8505 41.6823 18.8701C42.3799 20.7812 42.7604 22.8446 42.7604 24.9971Z" fill="#9CCF31"/>
<mask id="mask4_10_19275" style="mask-type:luminance" maskUnits="userSpaceOnUse" x="6" y="15" width="22" height="28">
<path d="M6.97531 15.3087H27.1605V42.8658H6.97531V15.3087Z" fill="white"/>
</mask>
<g mask="url(#mask4_10_19275)">
<path d="M24.3022 40.5296C24.3193 40.462 24.3393 40.395 24.3579 40.3282C24.0743 40.3162 23.7912 40.2974 23.5089 40.2716C20.768 40.0217 18.0744 39.131 15.8095 37.5504C13.3283 35.8189 11.3788 33.363 10.3067 30.5312C9.2202 27.6602 9.0912 24.5185 9.62167 21.5148C9.97348 19.5231 10.5758 17.556 11.3983 15.6899C10.9951 15.5144 10.5695 15.3926 10.1203 15.3345C10.0342 15.3236 9.94816 15.315 9.86159 15.3089C8.05725 18.1 7.01003 21.4256 7.01003 24.9967C7.01003 34.8662 15.013 42.8675 24.8852 42.8675C25.6378 42.8675 26.3802 42.821 27.1082 42.7301C26.6715 42.446 26.1133 42.3018 25.6486 42.1335C24.9998 41.8994 24.0948 41.3578 24.3022 40.5296Z" fill="#A1C021"/>
</g>
<path d="M13.4298 11.9625C13.791 11.4164 14.1778 10.8871 14.5944 10.3829C13.3876 11.2338 12.2909 12.2302 11.3301 13.3471C11.6725 13.4797 12.0192 13.6089 12.371 13.7194C12.7006 13.118 13.0536 12.5313 13.4298 11.9625Z" fill="#A1C021"/>
<path d="M41.6823 18.8701C41.522 18.8631 41.3621 18.8612 41.202 18.8641C41.3609 19.5744 41.4899 20.291 41.5919 21.0082C41.813 22.5697 41.8974 24.151 41.7728 25.7248C41.652 27.2548 41.344 28.7727 40.8013 30.2105C40.232 31.7202 39.4206 33.1204 38.3977 34.368C37.8458 35.0412 37.2345 35.6607 36.5758 36.2254C36.9459 36.1328 37.2791 35.9276 37.6411 35.8056C38.1508 35.6349 38.5699 35.7786 38.9289 36.054C41.3288 33.0122 42.7604 29.1715 42.7604 24.9971C42.7604 22.8446 42.3799 20.7813 41.6823 18.8701Z" fill="#A1C021"/>
<path d="M23.3642 39.2438C23.1277 39.2438 22.8923 39.1734 22.6739 39.0355C22.5227 38.9403 22.3939 38.8291 22.2695 38.7213C22.0655 38.5446 21.8892 38.3924 21.657 38.3398C21.4371 38.2899 21.1977 38.2897 20.9445 38.2892C20.7366 38.2887 20.5218 38.2885 20.3082 38.2598C19.6971 38.1776 19.2277 37.8446 18.9865 37.3228C18.9246 37.1894 18.8764 37.0518 18.8298 36.9184C18.7278 36.6278 18.6316 36.353 18.4129 36.1791C18.1255 35.9508 17.6934 35.8671 17.3085 35.815C17.1829 35.7981 17.0534 35.7841 16.928 35.7706C16.5695 35.7309 16.1986 35.6901 15.8348 35.5794C15.252 35.4022 14.8093 35.0871 14.5546 34.6668C14.2829 34.2188 14.259 33.722 14.2364 33.2407C14.2323 33.159 14.2284 33.0749 14.2231 32.9931C14.2091 32.7797 14.1845 32.5576 14.0979 32.377C14.0287 32.2328 13.9263 32.1077 13.7555 31.9584C13.6106 31.8318 13.4529 31.72 13.2856 31.6013C13.0715 31.4497 12.8501 31.2927 12.6524 31.0991C12.2466 30.7005 12.0026 30.1693 11.9471 29.5619C11.8994 29.0408 12.0129 28.493 12.2941 27.8877C12.3182 27.8359 12.3433 27.7841 12.3681 27.7317C12.5545 27.3428 12.7308 26.9756 12.608 26.6028C12.5545 26.4398 12.4621 26.284 12.3645 26.1193C12.3331 26.0665 12.3011 26.012 12.27 25.9573C12.1021 25.6602 11.9951 25.4008 11.9326 25.1413C11.6857 24.1131 11.9951 22.9405 12.7819 21.9242C12.8077 21.8907 12.834 21.8572 12.8605 21.8236C13.1209 21.4919 13.3673 21.1779 13.3189 20.8032C13.3022 20.6759 13.2723 20.5498 13.2403 20.4157C13.2007 20.2508 13.1602 20.0803 13.144 19.8985C13.1185 19.6147 13.1457 19.3082 13.2224 19.0123C13.3647 18.4643 13.674 17.9955 14.1968 17.5359C14.3651 17.3884 14.5385 17.2229 14.668 17.0144C14.7425 16.8948 14.8088 16.7706 14.8787 16.6394C14.9236 16.5555 14.9699 16.4687 15.0183 16.3833C15.1203 16.2042 15.2816 15.9418 15.5056 15.7304C15.7063 15.5409 15.9462 15.3969 16.2838 15.2633C16.4072 15.2141 16.5321 15.1729 16.6532 15.1331C16.78 15.0911 16.8998 15.0516 17.0168 15.0041C17.2138 14.9245 17.3816 14.8095 17.5301 14.6528C17.608 14.5703 17.6808 14.483 17.7582 14.3904C17.8564 14.2728 17.9579 14.1508 18.0732 14.0374C18.2699 13.844 18.4918 13.6781 18.7331 13.5446C19.1978 13.288 19.742 13.14 20.3067 13.1168C21.088 13.085 21.9782 13.3526 22.7488 13.8515C23.5614 14.3777 24.1348 15.0849 24.3637 15.8418C24.5327 16.4009 24.5067 17.0093 24.4813 17.5977C24.4712 17.8277 24.4618 18.045 24.4642 18.2557C24.4823 19.9484 24.5667 21.6696 24.6482 23.3343C24.6853 24.0953 24.7242 24.8823 24.756 25.6566C24.8462 27.8516 24.906 30.4449 24.6677 33.0418C24.6571 33.1547 24.6465 33.2678 24.6359 33.3808C24.5288 34.5187 24.4184 35.6954 24.5821 36.8287L24.5889 36.8765C24.6754 37.4737 24.7736 38.1506 24.347 38.7172C24.136 38.9969 23.8568 39.1782 23.56 39.2277C23.4946 39.2385 23.4293 39.2438 23.3642 39.2438Z" fill="white"/>
<path d="M26.4063 39.2438C26.3409 39.2438 26.2756 39.2385 26.2105 39.2277C25.9139 39.1782 25.6342 38.9969 25.4237 38.7172C24.9966 38.1506 25.095 37.4737 25.1816 36.8765L25.1886 36.8287C25.3523 35.6954 25.2416 34.5187 25.1346 33.3808C25.1237 33.268 25.1131 33.1547 25.1027 33.0418C24.8645 30.4451 24.9245 27.8516 25.0145 25.6566C25.0461 24.8823 25.0849 24.0953 25.122 23.3345C25.2038 21.6698 25.2884 19.9484 25.3065 18.2557C25.3086 18.045 25.299 17.8277 25.2894 17.5977C25.2638 17.0093 25.2378 16.4009 25.4068 15.8418C25.6356 15.0849 26.209 14.3777 27.0219 13.8515C27.7922 13.3526 28.6825 13.085 29.4637 13.1168C30.0287 13.14 30.5727 13.288 31.0373 13.5446C31.2787 13.6781 31.5005 13.844 31.6973 14.0374C31.8126 14.1508 31.9141 14.2728 32.0122 14.3904C32.0894 14.483 32.1624 14.5703 32.2406 14.6528C32.3891 14.8095 32.5567 14.9245 32.7534 15.0041C32.8706 15.0516 32.9905 15.0911 33.1175 15.1331C33.2386 15.1729 33.3635 15.2141 33.4867 15.2633C33.824 15.3969 34.0642 15.5409 34.2651 15.7304C34.4888 15.9418 34.6504 16.2042 34.7521 16.3833C34.8006 16.4687 34.8469 16.5555 34.8917 16.6392C34.9617 16.7706 35.0277 16.8948 35.1025 17.0144C35.2317 17.2229 35.4053 17.3884 35.5736 17.5359C36.0964 17.9955 36.406 18.4643 36.548 19.0123C36.6247 19.3082 36.652 19.6147 36.6264 19.8985C36.6105 20.0803 36.5695 20.2508 36.5302 20.4159C36.4981 20.5498 36.4682 20.6759 36.4516 20.8032C36.4034 21.1779 36.6496 21.4916 36.91 21.8236C36.9367 21.8572 36.9628 21.8907 36.9886 21.9242C37.7754 22.9405 38.085 24.1131 37.8378 25.1413C37.7754 25.4008 37.6681 25.6602 37.5005 25.9573C37.4694 26.012 37.4371 26.0665 37.406 26.1193C37.3085 26.284 37.2162 26.4398 37.1624 26.6028C37.0402 26.9756 37.216 27.3428 37.4021 27.7317C37.4274 27.7841 37.4523 27.8359 37.4761 27.8877C37.7578 28.493 37.8711 29.0408 37.8234 29.5619C37.7679 30.1693 37.5239 30.7005 37.1181 31.0991C36.9203 31.2927 36.699 31.4497 36.4849 31.6013C36.3175 31.72 36.1596 31.8318 36.0149 31.9584C35.8442 32.1075 35.7417 32.2328 35.6725 32.377C35.5859 32.5576 35.5611 32.7797 35.5474 32.9931C35.5421 33.0749 35.5382 33.159 35.5343 33.2407C35.5112 33.722 35.4876 34.2188 35.2158 34.6668C34.9614 35.0871 34.5187 35.4022 33.9357 35.5794C33.5718 35.6901 33.201 35.7309 32.8424 35.7706C32.717 35.7841 32.5875 35.7981 32.4619 35.815C32.0771 35.8671 31.645 35.9508 31.3573 36.1791C31.1388 36.353 31.0426 36.6278 30.9409 36.9184C30.8941 37.0518 30.8459 37.1894 30.7841 37.3228C30.5428 37.8446 30.0733 38.1776 29.4625 38.2598C29.2484 38.2885 29.0338 38.2887 28.826 38.2892C28.5728 38.2897 28.3333 38.2899 28.1137 38.3398C27.8812 38.3924 27.7052 38.5446 27.501 38.7213C27.3765 38.8291 27.2478 38.9403 27.0966 39.0355C26.8781 39.1734 26.6428 39.2438 26.4063 39.2438Z" fill="white"/>
<path d="M27.3734 19.8003C27.4245 19.3885 27.5354 18.9858 27.63 18.5817C27.5911 18.4368 27.5516 18.2902 27.4778 18.1595C27.4067 18.0324 27.3054 17.9253 27.1981 17.827C26.7286 17.3961 26.1126 17.1677 25.4866 17.0467C24.8888 16.9309 24.2137 17.0149 23.6482 17.2357C23.2986 17.3724 22.9736 17.5728 22.697 17.827C22.5897 17.9253 22.4887 18.0324 22.4173 18.1595C22.0399 18.8289 22.1677 19.7439 22.2131 20.4847C22.2668 21.3718 22.3876 22.2538 22.5258 23.1315C23.1978 22.5403 24.0941 22.2109 24.9889 22.2258C25.8835 22.2408 26.7682 22.6001 27.4202 23.2133C27.4192 22.2203 27.3857 21.2278 27.3194 20.2375C27.3372 20.0916 27.3556 19.946 27.3734 19.8003Z" fill="#63A630"/>
<path d="M25.3781 21.4434C24.8558 21.3503 24.3465 21.1876 23.8694 20.9556C23.3854 20.7205 22.9598 20.4068 22.5639 20.0453C22.4265 19.92 22.2917 19.7914 22.1603 19.6593C22.1711 19.9436 22.1971 20.225 22.2131 20.4847C22.2668 21.3718 22.3876 22.2538 22.5258 23.1315C23.1978 22.5403 24.0941 22.2109 24.9889 22.2259C25.8835 22.2408 26.7682 22.6001 27.4202 23.2133C27.4197 22.6391 27.4079 22.0655 27.3857 21.4921C26.7188 21.576 26.0393 21.5611 25.3781 21.4434Z" fill="#5E9E31"/>
<path d="M28.2282 34.0847C29.4121 32.8248 30.4697 31.4463 31.3788 29.9756C30.0861 29.8503 28.8192 29.4649 27.6755 28.8501C27.1836 28.5858 26.7122 28.2779 26.2994 27.9017C25.3451 27.0317 24.7473 25.8422 24.2535 24.6494C23.8144 23.5896 23.4004 22.4891 23.125 21.3744C22.8554 20.2821 22.4595 19.245 22.4539 18.1002C21.6655 19.1264 21.0395 20.2281 20.7793 21.5094C20.3709 23.5188 20.8382 25.6264 21.7057 27.4843C22.3691 28.9041 23.2569 30.2028 24.1867 31.4595C24.654 32.091 25.0916 32.7069 25.4989 33.3787C25.6125 33.5658 26.8408 35.454 26.779 35.51C27.2806 35.0545 27.7643 34.5785 28.2282 34.0847Z" fill="#6EBC2E"/>
<path d="M29.9171 31.9478C29.3265 32.4486 28.5897 32.8002 27.8065 32.8217C27.0964 32.8412 26.4116 32.5786 25.8302 32.1846C25.21 31.7646 24.6916 31.2138 24.2371 30.6226C23.7601 30.0024 23.3589 29.3294 23.0141 28.6282C22.6087 27.8048 22.2813 26.943 22.0358 26.0583C21.78 25.1362 21.591 24.1816 21.5217 23.2263C21.4494 22.2234 21.5324 21.2244 21.6999 20.2353C21.7824 19.7471 21.8504 19.2431 21.9794 18.7596C21.4181 19.5988 20.9848 20.4982 20.7793 21.5095C20.3709 23.5188 20.8382 25.6264 21.7057 27.4843C22.3691 28.9041 23.2569 30.2028 24.1867 31.4595C24.654 32.091 25.0916 32.7069 25.4989 33.3787C25.6125 33.5658 26.8408 35.454 26.779 35.51C27.2806 35.0545 27.7643 34.5785 28.2282 34.0847C28.9726 33.2926 29.6668 32.4537 30.306 31.5746C30.1837 31.7065 30.0543 31.8314 29.9171 31.9478Z" fill="#65AD30"/>
<path d="M31.3093 30.0875C31.3327 30.0504 31.3556 30.0133 31.3788 29.9756L31.3662 29.9747C31.3474 30.012 31.3284 30.0499 31.3093 30.0875Z" fill="#65AD30"/>
<path d="M28.9492 20.9942C28.7731 20.4516 28.5465 19.926 28.2718 19.4261C28.1448 19.1946 28.0081 18.9685 27.8733 18.7408C27.7932 18.6053 27.5258 18.2193 27.431 18.0857C27.426 19.1189 27.1236 20.1432 26.7887 21.121C26.2565 22.6726 25.5474 24.1184 24.8124 25.5787C23.8877 27.4146 22.4573 28.7871 20.6269 29.7017C19.8534 30.0885 19.0348 30.386 18.192 30.5826C19.8488 31.9707 21.2254 33.6914 22.216 35.6122C22.2063 35.5939 23.2608 34.5959 23.3558 34.491C24.4138 33.3208 25.4478 32.1275 26.4142 30.8806C27.3249 29.7063 28.2345 28.4814 28.7768 27.0862C29.1201 26.2039 29.3273 25.2686 29.3818 24.3232C29.4471 23.1993 29.2966 22.0645 28.9492 20.9942Z" fill="#73C932"/>
<path d="M28.9492 20.9942C28.7731 20.4516 28.5465 19.926 28.2718 19.4261C28.1448 19.1946 28.0081 18.9684 27.8733 18.7408C27.8161 18.6444 27.664 18.4199 27.5465 18.2509C27.7751 18.812 27.9663 19.389 28.1076 19.9768C28.2665 20.6385 28.3767 21.31 28.4254 21.9886C28.4725 22.6471 28.4628 23.3099 28.3939 23.9663C28.3247 24.6226 28.1993 25.2732 28.0076 25.9047C27.819 26.5246 27.5685 27.1279 27.2531 27.6941C26.937 28.2619 26.5538 28.7941 26.1106 29.2696C25.6554 29.7581 25.1345 30.1864 24.5686 30.5401C23.9299 30.9397 23.2299 31.2548 22.492 31.4166C21.7089 31.5883 20.8685 31.5948 20.1208 31.277C19.7825 31.1333 19.4729 30.9228 19.1939 30.6848C19.0883 30.5948 18.9856 30.4982 18.8913 30.3942C18.6605 30.4644 18.4274 30.5273 18.192 30.5825C19.8488 31.9707 21.2254 33.6914 22.216 35.6122C22.2063 35.5939 23.2608 34.5959 23.3558 34.491C24.4138 33.3208 25.4478 32.1274 26.4142 30.8806C27.3249 29.7063 28.2345 28.4814 28.7768 27.0862C29.1201 26.2039 29.3273 25.2686 29.3818 24.3231C29.4471 23.1993 29.2966 22.0645 28.9492 20.9942Z" fill="#70BF2D"/>
</svg>
