<svg xmlns="http://www.w3.org/2000/svg" xmlns:xlink="http://www.w3.org/1999/xlink" width="1080" zoomAndPan="magnify" viewBox="0 0 810 809.999993" height="1080" preserveAspectRatio="xMidYMid meet" version="1.0"><defs><clipPath id="c06a29a002"><path d="M 88.085938 0 L 238 0 L 238 232 L 88.085938 232 Z M 88.085938 0 " clip-rule="nonzero"/></clipPath></defs><g clip-path="url(#c06a29a002)"><path fill="#81cc29" d="M 212.417969 231.449219 L 213.589844 231.5 L 213.695312 230.328125 C 218.140625 186.320312 175.910156 119.832031 159.457031 95.816406 C 205.675781 140.441406 218.167969 209.597656 218.3125 210.339844 L 218.972656 214.152344 L 220.640625 210.660156 C 240.648438 168.785156 242.949219 130.476562 227.332031 97 C 195.664062 29.175781 101.84375 3.414062 91.253906 0.6875 L 88.628906 0.0195312 L 89.851562 2.433594 C 101.449219 25.484375 102.152344 50.597656 102.902344 77.191406 C 103.699219 104.933594 104.507812 133.570312 116.683594 164.960938 C 140.863281 227.230469 211.699219 231.417969 212.417969 231.449219 " fill-opacity="1" fill-rule="nonzero"/></g><path fill="#41b93c" d="M 704.894531 589.632812 C 693.261719 626.417969 674.695312 660.855469 650.605469 690.824219 C 626.515625 720.796875 596.898438 746.300781 563.875 765.570312 C 530.738281 784.96875 494.074219 798.132812 456.234375 804.125 C 418.507812 810 379.847656 809.179688 342.476562 801.304688 C 305.226562 793.425781 269.386719 778.621094 237.65625 757.933594 C 205.808594 737.128906 177.839844 710.6875 155.628906 680.011719 C 133.300781 649.339844 116.847656 614.546875 107.214844 578.117188 C 97.578125 541.5625 94.757812 503.371094 98.753906 465.996094 C 99.105469 462.117188 99.574219 458.355469 100.164062 454.476562 L 100.046875 452.714844 L 100.515625 452.714844 C 105.453125 419.925781 115.792969 387.953125 131.070312 358.578125 C 148.226562 325.316406 171.613281 295.222656 199.460938 270.3125 C 227.429688 245.394531 259.984375 225.882812 294.886719 212.71875 C 322.382812 202.378906 351.292969 196.148438 380.554688 194.152344 C 350.585938 190.390625 296.765625 189.804688 249.640625 222.359375 L 244.003906 226.234375 L 247.054688 220.121094 C 266.917969 180.632812 330.257812 91.902344 489.609375 121.875 C 538.140625 129.042969 571.871094 116.933594 572.226562 116.820312 L 575.160156 115.757812 L 574.574219 118.816406 C 574.335938 119.992188 549.191406 230.46875 454.703125 280.183594 C 423.914062 296.398438 389.367188 304.394531 351.292969 304.394531 C 307.8125 304.394531 259.867188 293.9375 207.570312 272.894531 C 206.511719 273.835938 205.457031 274.777344 204.398438 275.71875 C 181.132812 297.222656 161.269531 322.488281 145.875 350.109375 C 147.992188 360.097656 149.519531 366.917969 150.460938 370.910156 C 151.398438 374.441406 154.339844 377.613281 158.214844 379.253906 C 165.03125 382.199219 174.316406 380.667969 184.1875 375.027344 C 188.417969 372.675781 193.351562 372.914062 198.054688 375.851562 C 206.164062 380.785156 212.390625 392.417969 211.921875 401.703125 C 211.683594 406.761719 209.921875 410.988281 206.984375 413.929688 C 203.222656 417.570312 198.289062 418.628906 193.46875 419.574219 C 191.355469 420.039062 189.125 420.511719 187.242188 421.214844 C 180.660156 423.449219 175.136719 429.089844 172.550781 436.492188 C 169.964844 443.894531 170.671875 451.769531 174.433594 457.53125 C 175.257812 458.941406 176.195312 460.117188 177.136719 461.410156 C 179.367188 464.234375 181.601562 467.171875 182.542969 470.816406 C 183.832031 475.867188 182.1875 481.742188 178.195312 486.5625 C 173.84375 491.617188 167.027344 494.671875 159.625 494.90625 L 159.039062 494.90625 C 151.871094 494.90625 145.171875 492.082031 140.707031 487.148438 C 137.414062 483.625 135.300781 479.160156 133.300781 474.925781 C 131.070312 470.222656 129.074219 465.875 125.546875 462.585938 C 122.019531 459.0625 117.203125 457.058594 110.976562 456.359375 C 110.503906 459.882812 110.152344 463.527344 109.796875 467.050781 C 108.976562 475.867188 108.625 484.800781 108.625 493.613281 C 108.625 512.421875 110.386719 531.105469 113.796875 549.441406 C 139.882812 545.675781 159.625 546.261719 177.25 551.4375 C 201.34375 558.375 219.910156 574.472656 227.078125 594.570312 C 229.546875 601.386719 230.605469 608.789062 231.78125 615.957031 C 233.308594 625.949219 234.71875 635.46875 239.535156 643.8125 C 245.292969 653.683594 254.695312 660.03125 264.683594 666.96875 C 272.4375 672.253906 280.433594 677.78125 286.539062 684.949219 C 305.464844 707.398438 302.523438 739.71875 297.46875 768.980469 C 313.335938 774.976562 329.667969 779.675781 346.242188 782.851562 C 407.230469 794.601562 471.742188 786.488281 527.445312 759.695312 C 524.277344 749.824219 521.804688 739.484375 522.75 728.90625 C 524.15625 715.390625 531.910156 704.21875 542.609375 700.34375 C 545.429688 699.402344 548.484375 698.933594 551.300781 698.464844 C 554.003906 697.992188 556.59375 697.640625 559.054688 696.816406 C 566.699219 694.234375 573.398438 687.421875 579.390625 676.019531 C 580.566406 673.902344 581.621094 671.667969 582.796875 669.550781 C 586.320312 662.382812 589.964844 654.980469 595.605469 648.984375 C 603.125 641.109375 614.414062 636.644531 626.28125 636.878906 C 635.914062 636.996094 644.726562 640.167969 651.664062 645.460938 C 663.527344 625.484375 672.933594 603.96875 679.632812 581.761719 C 683.269531 569.539062 686.09375 556.964844 688.089844 544.386719 C 671.636719 554.847656 651.542969 559.425781 632.152344 557.078125 C 615.113281 555.082031 597.253906 543.914062 597.605469 527.460938 C 597.605469 525.578125 597.953125 523.703125 598.195312 521.9375 C 598.660156 518.527344 599.136719 515.359375 597.953125 512.535156 C 596.3125 508.421875 591.492188 505.832031 583.738281 504.777344 C 569.046875 502.894531 556.59375 504.65625 546.835938 510.066406 C 535.324219 516.53125 528.152344 528.871094 529.328125 540.269531 C 529.683594 542.625 530.269531 545.089844 530.859375 547.558594 C 531.910156 551.902344 533.085938 556.371094 532.382812 561.074219 C 531.324219 566.714844 527.679688 571.414062 524.511719 574.824219 C 516.753906 583.402344 507.234375 590.339844 498.1875 597.039062 C 493.601562 600.445312 488.902344 603.734375 484.554688 607.382812 C 468.21875 620.664062 459.289062 633.9375 457.292969 647.808594 C 456.121094 655.566406 457.171875 663.320312 458.234375 671.433594 C 459.167969 678.015625 460.109375 684.828125 459.753906 691.53125 C 458.9375 705.75 451.300781 719.738281 439.078125 728.90625 C 430.96875 735.011719 421.566406 738.304688 412.515625 738.304688 C 409.699219 738.304688 406.875 737.957031 404.058594 737.25 C 373.972656 730.199219 363.984375 694.585938 361.632812 683.777344 C 359.753906 675.3125 358.695312 666.496094 357.636719 657.917969 C 355.757812 643.578125 353.878906 628.773438 348.472656 615.371094 C 345.417969 607.96875 341.304688 600.917969 337.308594 593.984375 C 331.316406 583.523438 325.089844 572.710938 322.5 560.601562 C 322.265625 559.191406 322.03125 557.785156 321.796875 556.371094 C 320.855469 551.316406 320.035156 546.503906 317.097656 542.742188 C 314.394531 539.09375 310.042969 537.21875 305.578125 535.101562 C 302.40625 533.574219 299.117188 532.042969 296.179688 529.808594 C 290.65625 525.464844 287.363281 519.238281 286.539062 511.480469 C 285.484375 501.609375 288.890625 490.671875 295.355469 482.917969 C 306.636719 469.519531 324.5 463.40625 338.953125 458.589844 C 358.929688 451.65625 381.496094 443.894531 404.292969 446.128906 C 409.699219 446.71875 415.21875 447.777344 420.625 448.835938 C 433.433594 451.304688 445.539062 453.652344 456.820312 449.070312 C 470.921875 443.546875 479.265625 426.507812 475.15625 411.929688 C 473.859375 407.351562 470.453125 403.820312 466.933594 400.179688 C 465.867188 399.117188 464.816406 398.066406 463.871094 397.003906 C 459.875 392.769531 458.703125 385.957031 460.464844 379.019531 C 462.460938 371.851562 467.277344 366.210938 473.039062 364.449219 C 480.558594 362.097656 488.316406 363.859375 495.839844 365.625 C 501.832031 367.03125 508.179688 368.449219 514.050781 367.503906 C 523.335938 366.097656 531.445312 358.335938 533.207031 349.050781 C 534.378906 342.824219 532.972656 336.472656 531.445312 329.78125 C 530.859375 327.3125 530.269531 324.960938 529.914062 322.609375 C 525.570312 298.046875 534.734375 271.011719 553.890625 250.921875 C 555.175781 249.386719 556.59375 248.097656 558.003906 246.6875 C 565.054688 240.21875 572.691406 234.8125 580.449219 230.582031 C 581.507812 231.289062 582.5625 232.109375 583.503906 232.816406 C 598.425781 243.984375 612.761719 256.320312 624.632812 268.074219 L 634.855469 278.535156 C 636.503906 280.296875 638.265625 282.058594 639.792969 283.820312 L 644.492188 289.46875 L 653.777344 300.75 L 662.242188 312.503906 L 666.585938 318.496094 C 667.882812 320.492188 669.054688 322.609375 670.464844 324.605469 L 677.984375 337.070312 C 680.457031 341.179688 682.570312 345.644531 684.800781 349.875 C 686.914062 354.222656 689.503906 358.457031 691.265625 363.042969 C 707.132812 398.414062 717.003906 436.492188 719.117188 475.160156 C 721.347656 513.828125 716.648438 552.730469 704.894531 589.632812 " fill-opacity="1" fill-rule="nonzero"/><path fill="#41b93c" d="M 568.011719 625.199219 C 567.980469 629.214844 566.660156 632.4375 564.304688 634.242188 C 562.8125 635.386719 561.015625 635.867188 559.421875 636.320312 L 558.828125 636.460938 C 553.253906 638.015625 547.953125 640.824219 543.550781 644.632812 C 541.054688 646.78125 538.738281 649.34375 536.484375 651.808594 C 534.582031 653.917969 532.644531 656.066406 530.488281 658.074219 C 524.84375 663.339844 518.890625 666.082031 513.242188 666.082031 L 512.519531 666.082031 C 499 665.527344 496.617188 657.554688 496.441406 652.84375 C 495.820312 638.746094 512.378906 618.507812 525.957031 616.738281 C 527.722656 616.5 529.527344 616.429688 531.292969 616.328125 C 534.613281 616.152344 537.734375 616.015625 540.648438 614.941406 C 542.238281 614.355469 543.761719 613.519531 545.359375 612.621094 C 548.441406 610.890625 551.660156 609.15625 555.367188 609.222656 C 562.992188 609.433594 568.082031 617.644531 568.011719 625.199219 " fill-opacity="1" fill-rule="nonzero"/><path fill="#41b93c" d="M 394.425781 402.308594 C 388.675781 410.023438 377.804688 409.851562 369.515625 407.183594 C 367.417969 406.515625 365.269531 405.707031 363.214844 404.898438 C 358.152344 402.941406 353.421875 401.113281 348.585938 401.269531 C 343.890625 401.457031 339.367188 403.523438 334.570312 405.789062 L 332.863281 406.558594 C 326.816406 409.300781 320.328125 411.636719 313.503906 410.414062 C 307.632812 409.332031 303.835938 407.375 301.445312 405.164062 C 298.609375 402.554688 297.734375 399.582031 297.582031 396.996094 C 297.046875 380.425781 330.820312 356.609375 341.105469 353.886719 C 362.644531 348.261719 387.617188 361.0625 395.566406 381.851562 C 398.617188 389.816406 398.21875 397.3125 394.425781 402.308594 " fill-opacity="1" fill-rule="nonzero"/><path fill="#41b93c" d="M 299.222656 630.496094 C 299.046875 635.726562 296.761719 640.230469 293.121094 642.585938 C 290.492188 644.285156 287.40625 644.703125 284.53125 644.703125 C 282.765625 644.703125 281.105469 644.5625 279.648438 644.425781 C 275.179688 643.976562 269.601562 643.457031 265.480469 639.992188 C 263.367188 638.222656 261.910156 635.832031 260.699219 633.894531 L 260.179688 633.03125 C 255.640625 625.683594 248.019531 613.347656 250.792969 604.273438 C 251.828125 600.910156 254.152344 598.65625 257.304688 597.898438 C 261.253906 596.996094 265.894531 598.625 269.183594 602.085938 C 270.710938 603.71875 271.78125 605.585938 272.789062 607.421875 L 273.65625 608.914062 C 275.765625 612.484375 279.371094 617.085938 284.5 618.578125 C 285.640625 618.925781 286.855469 619.136719 288.167969 619.34375 C 291.496094 619.929688 295.304688 620.554688 297.558594 623.675781 C 298.769531 625.40625 299.324219 627.621094 299.222656 630.496094 " fill-opacity="1" fill-rule="nonzero"/></svg>