<svg width="20" height="20" viewBox="0 0 20 20" fill="none" xmlns="http://www.w3.org/2000/svg">
<g clip-path="url(#clip0_10_19778)">
<path fill-rule="evenodd" clip-rule="evenodd" d="M12.855 14.6249L17.7536 19.5219C18.2386 20.0068 19.0262 20.0066 19.5113 19.5215C19.9961 19.0364 19.9959 18.2487 19.511 17.7638L14.6156 12.8703C15.6004 11.5308 16.1826 9.87664 16.1826 8.08758C16.1826 3.62384 12.5586 0 8.09499 0C3.63136 0 0.00741577 3.62384 0.00741577 8.08758C0.00741577 12.5512 3.63136 16.1751 8.09499 16.1751C9.87383 16.1751 11.5192 15.5997 12.855 14.6249ZM8.09499 2.48573C11.1867 2.48573 13.6969 4.99585 13.6969 8.08758C13.6969 11.1793 11.1867 13.6895 8.09499 13.6895C5.00327 13.6895 2.49324 11.1793 2.49324 8.08758C2.49324 4.99585 5.00327 2.48573 8.09499 2.48573Z" fill="#40A858"/>
</g>
<defs>
<clipPath id="clip0_10_19778">
<rect width="20" height="20" fill="white"/>
</clipPath>
</defs>
</svg>
