<svg width="50" height="50" viewBox="0 0 50 50" fill="none" xmlns="http://www.w3.org/2000/svg">
<path d="M49.4801 25.6766C49.4345 26.0506 49.1252 27.012 48.9284 27.3336C47.8368 29.1182 45.7535 29.191 44.4266 28.9181C44.0791 28.8469 43.5809 28.6753 43.0447 28.4493C43.2914 28.5224 43.5489 28.5711 43.7292 28.5897C43.7478 28.5913 43.7664 28.593 43.7849 28.595L43.7878 28.5957C43.8585 28.6104 43.9233 28.6188 43.9805 28.6188H43.9834C44.0979 28.6335 44.2141 28.6425 44.3301 28.6466C44.9464 28.6953 45.5051 28.6868 46.1034 28.4457C46.2729 28.391 46.4385 28.3186 46.6008 28.2251L46.602 28.2246C47.16 27.9774 47.6078 27.5562 47.9232 27.0387C47.934 27.0214 47.9446 27.0038 47.955 26.9862C47.9661 26.9683 47.9767 26.9498 47.987 26.9307C48.0558 26.8104 48.118 26.6819 48.1744 26.543C48.1959 26.489 48.2168 26.4347 48.2364 26.3805C48.2455 26.3534 48.2549 26.3262 48.2641 26.297C48.2733 26.271 48.2815 26.2437 48.2899 26.216C48.2945 26.2001 48.2991 26.1849 48.3036 26.1685C48.3632 25.9623 48.4158 25.7227 48.4565 25.4823C48.505 25.1992 48.5361 24.9151 48.5407 24.6815C48.5412 24.6554 48.5419 24.6299 48.5414 24.6053C48.5409 24.5112 48.5395 24.4174 48.5368 24.3234C48.5359 24.2918 48.5349 24.2605 48.5334 24.2291C48.5308 24.1667 48.5277 24.104 48.5226 24.0413L48.5228 24.041C48.505 23.7912 48.4695 23.5436 48.3994 23.3051C48.3825 23.2456 48.3627 23.1855 48.3408 23.1272C48.3005 23.0199 48.2373 22.8954 48.1595 22.7628C48.1503 22.7464 48.1404 22.7296 48.1296 22.7132C48.1199 22.696 48.1095 22.6789 48.0989 22.6623C47.9735 22.4597 47.8209 22.2471 47.6726 22.0583C47.6478 22.0264 47.6237 21.996 47.5996 21.9666H47.5991C47.5017 21.847 47.4081 21.7409 47.3281 21.6597C47.3047 21.6365 47.2815 21.6131 47.2581 21.5914C47.2347 21.5685 47.2113 21.5459 47.1875 21.5249C47.1641 21.5029 47.1402 21.4812 47.1166 21.461C47.0151 21.3708 46.9116 21.2883 46.805 21.2117L46.8046 21.2114C46.7503 21.1719 46.6953 21.1343 46.6401 21.0986H46.6396C46.6025 21.074 46.5656 21.0511 46.5278 21.0289L46.5273 21.0286C46.4904 21.0062 46.4523 20.9843 46.4142 20.9633C46.2808 20.89 46.1448 20.8247 46.0057 20.768C47.0018 21.1497 47.8501 21.6715 48.0847 21.8613C48.5882 22.2685 49.178 23.1889 49.3171 23.6478C49.5696 24.4806 49.5691 24.9419 49.4801 25.6766Z" fill="#FBC53C"/>
<path d="M45.761 28.7961C45.7287 28.7961 45.6966 28.7958 45.6646 28.7953C47.4209 28.3965 48.5815 27.003 48.7418 24.9971C48.8233 23.9808 48.5504 23.004 48.0228 22.2051C48.3367 22.4798 48.6138 22.8077 48.8416 23.2178C49.4502 24.313 49.3842 25.5944 48.9485 26.7371C48.3642 28.2685 47.1176 28.7961 45.761 28.7961Z" fill="#E9B739"/>
<path d="M48.5322 24.6369C48.5344 25.1406 48.3958 25.937 48.227 26.4113C47.9162 27.2873 47.3982 27.7913 46.5933 28.2557C45.7938 28.7174 44.904 28.6543 43.9742 28.6502C43.5703 28.6502 42.7881 28.2393 42.3934 28.1081C41.9061 27.9466 41.4588 27.6835 41.1309 27.3081C40.3771 26.4497 40.2375 25.5112 40.3265 24.3591C40.4299 22.7086 41.4648 21.1827 43.0452 20.7265C44.6255 20.2705 46.1612 20.5232 47.3184 21.691C47.6413 22.0175 48.1701 22.7291 48.3314 23.1588C48.5067 23.6268 48.5286 24.1365 48.5322 24.6369Z" fill="#FBC53C"/>
<path d="M48.9484 26.7371C48.3502 28.3046 47.0582 28.8204 45.6645 28.7953C47.4209 28.3965 48.5814 27.003 48.7418 24.9971C48.8233 23.9808 48.5503 23.004 48.0227 22.2051C48.3367 22.4798 48.6137 22.8077 48.8416 23.2178C49.4502 24.313 49.3841 25.5944 48.9484 26.7371ZM40.555 24.3591C40.7615 22.2025 42.4026 20.6732 44.5983 20.7424C44.9918 20.7547 45.3646 20.8268 45.712 20.9462C45.8024 20.9713 46.1412 21.1422 46.3047 21.21C47.6119 21.937 48.4117 23.418 48.2856 24.9971C48.1112 27.1776 46.5738 28.559 44.3528 28.4484C43.8587 28.4235 43.3314 28.3213 42.8342 28.1395C42.7464 28.1023 42.6596 28.0647 42.5752 28.0257C42.5521 28.0151 42.5294 28.0097 42.5072 28.0066C42.0886 27.8171 41.7038 27.5675 41.3963 27.2548C40.6158 26.4591 40.4924 25.4208 40.555 24.3591ZM49.3513 23.2005C48.7353 21.9524 47.7165 21.3192 46.5188 20.8097C45.9924 20.5192 45.3954 20.3357 44.749 20.2956C42.2253 20.1389 40.3349 21.8936 40.0988 24.3591C39.9742 26.4694 41.0638 28.0573 42.9036 28.6548C45.1562 29.5226 48.1898 29.7418 49.3019 27.0833C49.8145 25.8579 49.9549 24.423 49.3513 23.2005Z" fill="#483B38"/>
<path d="M45.4779 21.9579C48.4426 23.403 46.9326 28.1501 43.6097 27.303C39.8804 26.3525 41.9529 20.7559 45.4779 21.9579ZM43.1694 27.649C47.0657 29.0994 49.329 23.2827 45.6783 21.5492C45.6706 21.5456 45.6636 21.5439 45.6561 21.5413C45.6455 21.536 45.6356 21.5302 45.6238 21.5261C43.9463 20.9404 41.9681 21.8685 41.3532 23.5368C40.7193 25.2575 41.4337 27.003 43.1694 27.649Z" fill="#483B38"/>
<path d="M0.821012 18.1626C0.919874 18.5258 1.36572 19.4324 1.60684 19.7225C2.9451 21.3303 5.01734 21.1003 6.29073 20.6383C6.62421 20.5175 7.09223 20.2756 7.59016 19.974C7.35675 20.0822 7.10887 20.1678 6.93309 20.2122C6.915 20.2165 6.89668 20.2209 6.87884 20.2255L6.87618 20.2267C6.80819 20.2513 6.74549 20.2693 6.68883 20.2775L6.68593 20.2783C6.57453 20.3091 6.46096 20.3344 6.34643 20.3557C5.74361 20.4929 5.19023 20.5654 4.5633 20.4135C4.38776 20.3841 4.2127 20.3366 4.03885 20.2677L4.0374 20.2669C3.44977 20.103 2.94582 19.7512 2.55881 19.2848C2.54531 19.2691 2.53253 19.2535 2.51975 19.2376C2.506 19.2214 2.49274 19.2045 2.47972 19.1874C2.39436 19.0782 2.31407 18.96 2.23811 18.8308C2.20894 18.7804 2.18024 18.73 2.15324 18.6789C2.14022 18.6536 2.1272 18.6278 2.11369 18.6005C2.10091 18.5759 2.08886 18.5503 2.0768 18.5241C2.06981 18.5089 2.06281 18.4942 2.05606 18.4792C1.96733 18.2839 1.88052 18.0541 1.80529 17.8219C1.71656 17.549 1.64446 17.2721 1.60612 17.0419C1.60178 17.0161 1.5972 16.991 1.59406 16.9669C1.58128 16.8733 1.56923 16.7805 1.55838 16.6869C1.55452 16.6553 1.5509 16.6245 1.54777 16.5934C1.54126 16.5312 1.53571 16.4687 1.53113 16.4063L1.53089 16.4055C1.51256 16.1557 1.51184 15.9059 1.5468 15.6595C1.55476 15.5982 1.56585 15.536 1.57863 15.475C1.60323 15.3629 1.64784 15.2308 1.70571 15.0885C1.71198 15.0709 1.71945 15.0528 1.72741 15.035C1.73488 15.0164 1.74284 14.9981 1.75104 14.9802C1.84556 14.7615 1.96564 14.5291 2.08524 14.3207C2.10477 14.2855 2.1243 14.252 2.14407 14.2192H2.14432C2.2234 14.0869 2.30081 13.9682 2.36832 13.8764C2.38809 13.8501 2.40763 13.8238 2.42764 13.7985C2.44741 13.7727 2.46718 13.7471 2.48768 13.7228C2.50793 13.6974 2.52795 13.6726 2.54844 13.6492C2.63549 13.5453 2.72639 13.4486 2.82068 13.3574L2.82116 13.3572C2.8689 13.3102 2.91833 13.2649 2.96752 13.2217L2.96824 13.2215C3.00152 13.192 3.03455 13.1636 3.06879 13.1361L3.06904 13.1359C3.10279 13.1084 3.13679 13.0816 3.17151 13.0551C3.29304 12.963 3.41819 12.8791 3.54767 12.8029C2.61692 13.3244 1.85352 13.9639 1.64856 14.1855C1.20971 14.6615 0.759284 15.6573 0.687911 16.1318C0.558908 16.9919 0.626182 17.4486 0.821012 18.1626Z" fill="#FBC53C"/>
<path d="M4.26988 20.7622C3.16914 20.7622 2.14918 20.3207 1.48873 19.1117C0.863248 17.9663 0.638519 16.652 1.18395 15.4263C1.33682 15.0832 1.52924 14.7888 1.75059 14.5271C1.38649 15.2956 1.24182 16.174 1.38818 17.0566C1.73974 19.1799 3.11537 20.5498 5.07549 20.6899C4.80494 20.7366 4.53488 20.7622 4.26988 20.7622Z" fill="#E9B739"/>
<path d="M1.60782 16.9963C1.67896 17.4952 1.93141 18.2632 2.167 18.7081C2.60151 19.5301 3.18744 19.9535 4.05068 20.2964C4.90909 20.6375 5.78004 20.4463 6.69945 20.3077C7.099 20.2488 7.81346 19.7292 8.18527 19.5421C8.6439 19.3118 9.04875 18.987 9.31833 18.568C9.93995 17.6092 9.94212 16.6604 9.68725 15.5334C9.34581 13.9154 8.1004 12.5555 6.47086 12.3329C4.84085 12.1106 3.35792 12.5832 2.38208 13.906C2.10985 14.2759 1.69005 15.0564 1.59263 15.5047C1.48702 15.9934 1.5391 16.5008 1.60782 16.9963Z" fill="#FBC53C"/>
<path d="M8.77896 18.8756C8.57907 19.084 8.34855 19.2708 8.09899 19.436C8.07343 19.4416 8.04739 19.4514 8.02062 19.4686C7.89065 19.553 7.75514 19.6359 7.61553 19.7169C7.05419 19.999 6.43328 20.1765 5.84108 20.2247C3.49564 20.4164 2.00041 18.9084 1.78943 16.623C1.66187 15.2433 2.36355 13.9586 3.45248 13.2036C3.56798 13.1361 3.68541 13.0688 3.80428 13.002C3.82984 12.9878 3.84889 12.9707 3.8648 12.9524C4.29907 12.7238 4.77843 12.5745 5.28142 12.527C7.36066 12.3303 8.97717 13.601 9.46666 15.5944C9.71068 16.7834 9.66751 17.9509 8.77896 18.8756ZM1.48874 19.1117C0.863262 17.9663 0.638532 16.652 1.18396 15.4263C1.33683 15.0832 1.52925 14.7888 1.75061 14.5272C1.38651 15.2956 1.24183 16.1741 1.38819 17.0566C1.73976 19.1799 3.11538 20.5498 5.0755 20.6899C3.68155 20.9303 2.30833 20.612 1.48874 19.1117ZM9.90671 15.4729C9.33572 13.1482 7.32762 11.7395 4.93589 12.113C4.24868 12.2203 3.62633 12.4937 3.09947 12.8834C2.02043 13.5318 1.14827 14.2446 0.664573 15.4912C0.166647 16.7754 0.452864 18.1665 1.09498 19.342C2.55742 22.0194 5.68869 21.3686 7.87522 20.0933C8.445 19.7987 8.96198 19.4042 9.33934 18.9263C10.1493 17.9008 10.1577 16.6959 9.90671 15.4729Z" fill="#483B38"/>
<path d="M7.14388 18.7948C3.99357 20.55 1.33563 15.8437 4.24241 13.9031C7.32931 12.2403 10.3325 17.0182 7.14388 18.7948ZM4.06349 13.4833C4.04661 13.4898 4.02949 13.4978 4.01213 13.5094C3.99405 13.519 3.9791 13.5303 3.96584 13.5421C0.659026 15.8198 3.73363 21.2449 7.37392 19.1886C8.98874 18.2764 9.43001 16.4547 8.54025 14.8454C7.69221 13.3126 5.61924 12.683 4.06349 13.4833Z" fill="#483B38"/>
<path d="M32.9463 7.68422C32.9647 8.06038 32.8217 9.06009 32.6818 9.41044C31.9068 11.3534 29.8655 11.7759 28.5118 11.7303C28.1568 11.7187 27.6372 11.6336 27.0703 11.5008C27.3257 11.5316 27.5878 11.5362 27.7689 11.5239C27.7874 11.5227 27.806 11.5213 27.8246 11.5201H27.8274C27.8995 11.5227 27.9649 11.5203 28.0213 11.5107L28.0242 11.5104C28.1397 11.5054 28.2557 11.4945 28.3707 11.4791C28.9865 11.4231 29.5356 11.3206 30.0849 10.9823C30.2426 10.9001 30.3938 10.8005 30.5377 10.6812L30.5389 10.6802C31.0475 10.3426 31.4173 9.85195 31.6411 9.28892C31.6491 9.27011 31.6563 9.25082 31.6638 9.23177C31.6717 9.21224 31.6792 9.19222 31.6862 9.17173C31.7337 9.04176 31.7732 8.90432 31.8058 8.75796C31.8179 8.70105 31.8292 8.64414 31.8391 8.58724C31.8437 8.55927 31.8485 8.53081 31.8526 8.50043C31.8569 8.47318 31.8605 8.44497 31.8641 8.41652C31.8661 8.39988 31.868 8.38397 31.8699 8.36709C31.8936 8.15417 31.9051 7.90871 31.9049 7.66493C31.9044 7.37751 31.8878 7.09225 31.8528 6.86101C31.849 6.83545 31.8453 6.81038 31.8408 6.78626C31.8244 6.69343 31.8068 6.60156 31.7887 6.50921C31.7824 6.47786 31.7761 6.44748 31.7694 6.41686C31.7564 6.35561 31.7426 6.29437 31.7272 6.2336V6.23312C31.6674 5.99006 31.591 5.75207 31.4815 5.52855C31.455 5.47261 31.4253 5.41691 31.3937 5.36289C31.3358 5.26403 31.2527 5.15215 31.1535 5.03472C31.1422 5.02001 31.1294 5.00482 31.1162 4.99035C31.1034 4.97516 31.0901 4.95997 31.0769 4.9455C30.9194 4.76683 30.7333 4.58309 30.5548 4.42202C30.5254 4.39477 30.4962 4.36873 30.4675 4.34389H30.4671C30.3511 4.24238 30.2411 4.15364 30.1481 4.08685C30.1215 4.06804 30.0948 4.04924 30.0678 4.03139C30.041 4.01283 30.0142 3.9945 29.9872 3.9781C29.9602 3.96002 29.9332 3.9429 29.9062 3.92674C29.7914 3.85489 29.6752 3.79099 29.5573 3.7336H29.5568C29.4965 3.7037 29.436 3.67549 29.3757 3.64969H29.375C29.3342 3.63209 29.2942 3.61521 29.2532 3.60002H29.2525C29.2122 3.58362 29.1712 3.56891 29.13 3.55444C28.9865 3.50477 28.8409 3.4633 28.6943 3.43123C29.7408 3.63908 30.665 4.0109 30.9281 4.15823C31.4928 4.47507 32.2295 5.28284 32.4443 5.7118C32.833 6.48992 32.9104 6.94492 32.9463 7.68422Z" fill="#FBC53C"/>
<path d="M29.7044 11.4038C31.3549 10.7222 32.2799 9.16642 32.1075 7.17688C32.0175 6.13859 31.5743 5.19169 30.8977 4.47699C31.2004 4.66507 31.4839 4.89534 31.7446 5.18542C32.6558 6.19863 32.8919 7.59259 32.5847 8.89925C32.2097 10.4941 31.0494 11.1994 29.7044 11.4038Z" fill="#E9B739"/>
<path d="M31.8371 6.81858C31.9239 7.31506 31.9215 8.12356 31.8352 8.61931C31.6765 9.53535 31.2507 10.1194 30.5355 10.7128C29.8252 11.3023 28.9378 11.3901 28.0203 11.5427C27.6225 11.6102 26.7821 11.3373 26.3708 11.2744C25.8632 11.197 25.3778 11.0137 24.9915 10.6983C24.1039 9.97951 23.8078 9.07745 23.7017 7.92704C23.5255 6.28304 24.2887 4.60431 25.7694 3.88865C27.2504 3.17275 28.8066 3.16334 30.1442 4.11941C30.5174 4.38682 31.1583 4.99928 31.3898 5.39569C31.6416 5.82755 31.7491 6.3262 31.8371 6.81858Z" fill="#FBC53C"/>
<path d="M32.5846 8.89926C32.2097 10.4941 31.0494 11.1994 29.7044 11.4038C31.3549 10.7222 32.2798 9.16643 32.1074 7.17689C32.0175 6.1386 31.5743 5.1917 30.8977 4.477C31.2003 4.66508 31.4839 4.89535 31.7445 5.18543C32.6558 6.19864 32.8918 7.5926 32.5846 8.89926ZM23.9301 7.92704C23.7744 5.82056 24.9964 4.0748 27.1111 3.67405C29.3494 3.24942 31.4 4.89077 31.6392 7.09226C31.8697 9.20814 30.8092 10.815 28.6603 11.2285C28.0997 11.3366 27.4807 11.346 26.8846 11.2464C26.76 11.2184 26.6365 11.1883 26.5162 11.1564C26.488 11.1487 26.4617 11.1475 26.4369 11.1492C26.0974 11.0576 25.773 10.9269 25.4803 10.7542C24.4358 10.1382 24.0572 9.07311 23.9301 7.92704ZM32.4069 5.27368C31.595 4.15268 30.516 3.69816 29.2629 3.39723C28.7285 3.20361 28.1443 3.11632 27.5318 3.16286C24.9783 3.35745 23.2875 5.40871 23.4739 7.92704C23.5995 9.06009 23.907 10.1155 24.8293 10.8603C25.3776 11.3026 26.0858 11.5734 26.8118 11.6971C29.2286 12.2256 32.4076 11.9454 33.0244 9.02055C33.2931 7.7474 33.1911 6.3561 32.4069 5.27368Z" fill="#483B38"/>
<path d="M28.3623 4.68967C31.4405 5.55459 30.945 10.4458 27.5989 10.2787C23.6311 10.0813 24.6096 4.05743 28.3623 4.68967ZM28.5407 4.26721C28.5238 4.2595 28.5053 4.25323 28.4836 4.24985C28.4621 4.24358 28.4421 4.24141 28.4226 4.24093C26.691 3.98341 24.9226 5.16662 24.5821 6.90586C24.227 8.72155 25.2235 10.3296 27.0508 10.6882C31.1319 11.4892 32.3749 5.40895 28.5407 4.26721Z" fill="#483B38"/>
<path d="M40.1738 10.7181C40.1885 11.3117 39.7745 12.0599 39.3955 12.5174C39.0164 12.9745 38.5711 13.1612 38.0703 13.4809C39.1409 13.9723 39.9773 14.9474 40.2999 16.08C40.6322 15.0733 41.4672 13.905 42.4303 13.4619C41.9251 13.2306 41.0841 12.7086 40.8384 12.2958C40.5464 11.8056 40.3954 11.244 40.1738 10.7181Z" fill="#FCD978"/>
<path d="M40.3087 15.3024C39.932 14.545 39.3789 13.9246 38.656 13.4645C39.3323 13.0025 39.9106 12.4645 40.2272 11.7465C40.3593 12.0828 40.516 12.4069 40.7415 12.6702C41.0282 13.0047 41.4178 13.2665 41.815 13.4857C41.1647 13.9496 40.6687 14.5879 40.3087 15.3024ZM42.5842 13.199C42.1576 12.9904 41.6742 12.743 41.3349 12.4047C40.8683 11.9401 40.7104 11.2611 40.4762 10.6614C40.4569 10.4697 40.2672 10.3959 40.1042 10.4386C39.9525 10.463 39.8245 10.5806 39.8664 10.7535C39.7649 11.9548 38.8626 12.6382 37.9169 13.2181C37.7325 13.3314 37.7062 13.6369 37.9169 13.7435C38.9371 14.2595 39.6516 15.0721 40.0068 16.1608C40.1032 16.4569 40.4907 16.441 40.5934 16.1608C40.9643 15.1492 41.6177 14.2337 42.5842 13.7244C42.7775 13.6222 42.787 13.2984 42.5842 13.199Z" fill="#483B38"/>
<path d="M2.51326 28.3234C2.52797 28.9171 2.11419 29.6651 1.73514 30.1222C1.35633 30.5799 0.910491 30.7665 0.409912 31.086C1.48027 31.5777 2.31674 32.5528 2.63985 33.6851C2.97188 32.6784 3.8069 31.5104 4.76996 31.0667C4.26456 30.8357 3.42351 30.3137 3.17804 29.9011C2.88604 29.4109 2.73485 28.8493 2.51326 28.3234Z" fill="#FCD978"/>
<path d="M2.64828 32.9077C2.27188 32.1501 1.7185 31.5297 0.995599 31.0694C1.67196 30.6076 2.24994 30.0699 2.56678 29.3516C2.69916 29.6882 2.85565 30.0123 3.0811 30.2754C3.36804 30.6098 3.75746 30.8719 4.1546 31.0911C3.50428 31.555 3.00828 32.1933 2.64828 32.9077ZM4.92355 30.8044C4.497 30.5958 4.01378 30.3482 3.67427 30.0099C3.20794 29.5455 3.05024 28.8665 2.81562 28.2663C2.79633 28.0751 2.60681 28.0013 2.4438 28.044C2.29214 28.0679 2.16386 28.1858 2.20581 28.3587C2.10454 29.5597 1.20224 30.2435 0.256305 30.8234C0.071843 30.9368 0.0458014 31.242 0.256305 31.3489C1.27699 31.8646 1.99097 32.677 2.34639 33.7659C2.44284 34.0623 2.83009 34.0463 2.93305 33.7659C3.3039 32.7546 3.95736 31.8391 4.92355 31.3296C5.11742 31.2273 5.12682 30.9037 4.92355 30.8044Z" fill="#483B38"/>
<path d="M14.8768 2.8829C14.8917 3.47632 14.4777 4.22477 14.0989 4.68195C13.7199 5.13913 13.2743 5.32576 12.7737 5.64549C13.8438 6.13691 14.6803 7.11202 15.0034 8.24435C15.3357 7.23765 16.1704 6.06963 17.1337 5.62644C16.6283 5.3952 15.787 4.8734 15.5416 4.4606C15.2498 3.97014 15.0984 3.4088 14.8768 2.8829Z" fill="#FCD978"/>
<mask id="mask0_10_12864" style="mask-type:luminance" maskUnits="userSpaceOnUse" x="12" y="2" width="6" height="7">
<path d="M12.4691 2.56245H17.4691V8.58025H12.4691V2.56245Z" fill="white"/>
</mask>
<g mask="url(#mask0_10_12864)">
<path d="M15.012 7.46696C14.6354 6.70959 14.0823 6.08917 13.3594 5.6291C14.0355 5.1671 14.6137 4.62915 14.9305 3.91107C15.0627 4.24744 15.2194 4.57152 15.4449 4.83459C15.7316 5.16927 16.1212 5.43113 16.5184 5.65032C15.868 6.11424 15.3721 6.75251 15.012 7.46696ZM17.2871 5.36386C16.8608 5.15504 16.3775 4.90765 16.0378 4.56911C15.5717 4.1047 15.4138 3.42592 15.1794 2.826C15.1601 2.63431 14.9703 2.56076 14.8076 2.6032C14.6559 2.62755 14.5276 2.74522 14.5693 2.91787C14.4683 4.1194 13.566 4.803 12.6201 5.38291C12.4356 5.496 12.4096 5.8015 12.6201 5.90808C13.6403 6.42385 14.3547 7.23669 14.7099 8.32538C14.8066 8.62148 15.1939 8.60556 15.2963 8.32538C15.6677 7.31385 16.3211 6.39829 17.2871 5.88879C17.4807 5.78679 17.4901 5.4632 17.2871 5.36386Z" fill="#483B38"/>
</g>
<mask id="mask1_10_12864" style="mask-type:luminance" maskUnits="userSpaceOnUse" x="9" y="43" width="31" height="5">
<path d="M9.25928 43.9506H39.5679V47.4236H9.25928V43.9506Z" fill="white"/>
</mask>
<g mask="url(#mask1_10_12864)">
<path d="M22.7563 47.4173C17.8988 47.4173 13.077 47.2032 11.3211 46.7409C10.7092 46.5799 9.30773 45.6074 9.29736 45.1276C9.28482 44.524 10.2775 44.2258 11.081 44.1066C11.3279 44.07 11.5779 44.0355 11.8304 44.0027C12.6755 44.8606 13.1626 45.108 14.6021 45.3026C15.8459 45.4712 16.862 45.5216 17.8002 45.5216C18.4985 45.5216 19.1539 45.4936 19.8278 45.4659C20.502 45.4379 21.195 45.4097 21.9686 45.4097C22.2403 45.4097 22.5219 45.4133 22.8166 45.4215C22.8168 45.4215 22.8171 45.4215 22.8173 45.4215C22.8195 45.4215 22.8217 45.4215 22.8238 45.4215C23.166 45.4309 23.5253 45.4471 23.9055 45.4709C23.9359 45.4729 23.9661 45.4745 23.9962 45.4765C24.0001 45.4767 24.0039 45.477 24.0078 45.4774C24.0097 45.4774 24.0119 45.4777 24.0138 45.4777C24.0179 45.4779 24.0218 45.4782 24.0259 45.4782C24.8758 45.5293 25.6573 45.5452 26.3826 45.5452C26.9712 45.5452 27.5227 45.5348 28.0435 45.5242C28.5646 45.5139 29.0545 45.5035 29.5209 45.5035C29.9887 45.5035 30.4328 45.5139 30.8587 45.5454C30.8688 45.5464 30.8789 45.5471 30.8893 45.5479C30.891 45.5481 30.8929 45.5481 30.8946 45.5483C31.2693 45.5782 32.0394 45.5961 32.7546 45.5961C32.7549 45.5961 32.7551 45.5961 32.7554 45.5961H32.7558C33.2863 45.5961 33.7862 45.5862 34.0724 45.5638C34.0729 45.5638 34.0738 45.5638 34.0743 45.5638H34.0746C34.077 45.5635 34.0794 45.563 34.0818 45.563C34.0823 45.563 34.083 45.5628 34.0835 45.5628C34.0847 45.5628 34.0859 45.5628 34.0871 45.5626C34.0876 45.5626 34.0878 45.5626 34.0885 45.5626C34.09 45.5623 34.0914 45.5623 34.0929 45.5621C34.7883 45.5032 35.4437 45.1792 35.9951 44.7514C35.9963 44.7502 35.9978 44.749 35.9992 44.7483C35.9997 44.7478 36 44.7476 36.0004 44.7471C36.0016 44.7461 36.0028 44.7451 36.0043 44.7439C36.0045 44.7437 36.0053 44.7435 36.0055 44.7432C36.0065 44.7422 36.0077 44.7418 36.0084 44.7408C36.0091 44.7403 36.0094 44.7403 36.0098 44.7396C36.011 44.7386 36.0123 44.7379 36.0135 44.7369C36.0142 44.7365 36.0147 44.736 36.0151 44.7355C36.0164 44.7345 36.0171 44.7341 36.0183 44.7331C36.0185 44.7328 36.0188 44.7328 36.019 44.7326C36.0202 44.7316 36.0217 44.7304 36.0229 44.7295C36.0236 44.7292 36.0238 44.7287 36.0241 44.7285C36.0253 44.7275 36.0265 44.7266 36.0277 44.7259C36.0282 44.7254 36.0289 44.7249 36.0294 44.7246C36.0303 44.7237 36.0311 44.7232 36.032 44.7225C36.0327 44.722 36.033 44.7215 36.0337 44.721C36.0347 44.7201 36.0361 44.7193 36.0371 44.7184C36.0376 44.7179 36.0383 44.7174 36.0385 44.7172C36.0397 44.7162 36.0407 44.7155 36.0414 44.7148C36.0422 44.7145 36.0424 44.7143 36.0426 44.714C36.0438 44.7131 36.045 44.7121 36.0463 44.7114C36.0467 44.7107 36.0475 44.7102 36.0482 44.7095C36.0489 44.709 36.0494 44.7087 36.0504 44.708C36.0513 44.7073 36.052 44.7066 36.053 44.7061C36.0535 44.7051 36.0547 44.7046 36.0554 44.7039C36.0559 44.7034 36.0566 44.7027 36.0571 44.7025C36.0581 44.702 36.059 44.701 36.0598 44.7003C36.0607 44.6998 36.0617 44.6988 36.0624 44.6984C36.0631 44.6976 36.0639 44.6972 36.0646 44.6964C36.0651 44.6962 36.0658 44.6957 36.0663 44.6955C36.0672 44.6945 36.0684 44.6935 36.0696 44.6928C36.0701 44.6921 36.0706 44.6916 36.0716 44.6911C36.0723 44.6904 36.073 44.6897 36.074 44.6892C36.0742 44.689 36.0749 44.6885 36.0752 44.6882C36.0764 44.687 36.0778 44.6863 36.079 44.6853C36.0793 44.6849 36.0798 44.6844 36.0802 44.6841C36.0815 44.6832 36.0829 44.6822 36.0841 44.6812C36.0841 44.681 36.0843 44.681 36.0846 44.6805C36.0858 44.6798 36.087 44.6788 36.0882 44.6776C36.0884 44.6774 36.0887 44.6774 36.0889 44.6771C36.0901 44.6762 36.0921 44.6747 36.093 44.6738C36.093 44.6735 36.0935 44.6735 36.0935 44.6735C36.095 44.6723 36.0962 44.6716 36.0976 44.6704C36.0976 44.6699 36.0979 44.6699 36.0979 44.6699C36.0993 44.6689 36.1007 44.6677 36.1022 44.6665L36.1027 44.6661C36.1041 44.6651 36.1056 44.6639 36.1068 44.6627H36.107C36.393 44.4322 36.623 44.2139 36.808 44.0013C37.4694 44.1042 38.1807 44.2479 38.5291 44.375C39.1213 44.5913 39.6096 45.0364 39.5595 45.5237C39.4792 46.3035 38.2306 46.6672 37.1993 46.8533C36.114 47.0489 35.0224 47.2454 33.9087 47.3025C31.6413 47.419 27.4636 47.3659 25.1608 47.3999C24.3673 47.4115 23.5619 47.4173 22.7563 47.4173Z" fill="#ECDFB6"/>
</g>
<path d="M17.5586 22.4556L17.595 22.5082C15.5956 23.8805 13.6246 25.332 11.617 26.6802L11.597 26.745C11.3009 26.6498 11.019 26.5198 10.7634 26.3397C10.2708 25.9908 9.987 25.3969 9.96457 24.803C9.94625 24.3632 10.0719 23.9212 10.362 23.5786C11.1509 22.65 11.9862 22.4597 13.1178 22.4414C14.6041 22.419 16.0822 22.4351 17.5586 22.4556Z" fill="#B18965"/>
<path d="M10.7769 26.3489C10.7764 26.3486 10.7762 26.3486 10.7757 26.3481C10.7762 26.3481 10.7764 26.3486 10.7769 26.3489ZM10.3694 23.5699C10.3696 23.5694 10.3701 23.5692 10.3706 23.5684C10.3701 23.5687 10.3696 23.5694 10.3694 23.5699Z" fill="#ECDFB6"/>
<path d="M11.3279 26.6462C11.1365 26.5671 10.9527 26.4709 10.7805 26.3515C10.7803 26.3513 10.7801 26.3513 10.7798 26.3508C10.7789 26.3503 10.7777 26.3493 10.7769 26.3489C10.7764 26.3486 10.7762 26.3481 10.7757 26.3481C10.7745 26.3474 10.7736 26.3465 10.7723 26.3455C10.7719 26.3452 10.7711 26.345 10.7709 26.3448C10.7699 26.344 10.7695 26.3436 10.7685 26.3433C10.768 26.3426 10.7678 26.3424 10.767 26.3421C10.7658 26.3411 10.7646 26.3402 10.7634 26.3397C10.2739 25.9934 9.99086 25.4049 9.96506 24.8151C9.96506 24.8126 9.96482 24.8105 9.96482 24.8083C9.96482 24.8064 9.96458 24.8047 9.96458 24.803C9.96337 24.7755 9.96265 24.748 9.96265 24.7203C9.96265 24.3082 10.0902 23.8997 10.362 23.5786C10.3632 23.5774 10.3644 23.5759 10.3653 23.5747C10.3658 23.5745 10.3661 23.5737 10.3663 23.5735C10.3673 23.5723 10.3685 23.5711 10.3694 23.5699C10.3697 23.5694 10.3702 23.5687 10.3706 23.5684C10.3714 23.5677 10.3723 23.5667 10.3733 23.5655C10.3735 23.5651 10.374 23.5643 10.3747 23.5639C10.3755 23.5629 10.3762 23.5619 10.3769 23.5612C10.3774 23.5607 10.3776 23.5602 10.3779 23.56C10.3791 23.5588 10.38 23.5576 10.3812 23.5564C10.3815 23.5559 10.3817 23.5554 10.382 23.5552C10.3832 23.5537 10.3844 23.5525 10.3856 23.5513C10.3856 23.5511 10.3856 23.5511 10.3856 23.5511C10.7113 23.1742 11.0455 22.9227 11.4055 22.7556C10.8379 23.254 10.5344 24.1346 10.6103 24.8614C10.6431 25.1731 10.9517 25.7166 11.2587 25.8497C11.279 25.8587 11.3021 25.8625 11.3272 25.8625C11.5941 25.8625 12.107 25.4034 12.3105 25.2643C13.6859 24.3246 14.9947 23.2873 16.4309 22.4414C16.6985 22.4443 16.9659 22.4479 17.2329 22.4515C15.3094 23.7662 13.4033 25.11 11.4646 26.4181C11.3759 26.4781 11.3344 26.5615 11.3279 26.6462Z" fill="#A47F5D"/>
<path d="M22.4475 22.1595C23.1327 22.3908 23.9256 22.5043 24.5624 22.1595C24.6639 22.2791 24.7652 22.3987 24.8686 22.5183L24.8886 22.567C22.48 23.5241 20.0548 24.4727 17.6924 25.3928L17.6478 25.2754C18.9415 24.3711 21.0624 23.234 22.4475 22.1595Z" fill="#F5DBBE"/>
<path d="M13.5942 26.978L13.5923 27.0105C13.58 27.0083 13.5701 27.0083 13.5576 27.0083C12.901 26.978 12.2176 26.9396 11.597 26.745L11.617 26.6802C13.6246 25.332 15.5956 23.8804 17.595 22.5082C17.8446 22.338 18.0939 22.1677 18.3452 21.9992C20.448 20.5864 22.5731 19.2689 24.8221 18.0244C25.8379 19.4534 26.2334 20.3675 26.9307 21.7257L26.9411 21.7501C26.2597 22.0238 25.5744 22.2955 24.8886 22.567L24.8686 22.5183C24.7651 22.3987 24.6639 22.2791 24.5624 22.1595C23.9255 22.5043 23.1327 22.3908 22.4474 22.1595C21.0624 23.234 18.9415 24.3711 17.6478 25.2754L17.6924 25.3928C16.2994 25.9341 14.9265 26.4653 13.5942 26.978Z" fill="#89C04B"/>
<path d="M36.7431 27.9208C36.0069 27.3105 35.1635 26.9941 34.5652 26.8909V26.889C34.0926 25.6199 33.517 24.0063 32.8986 22.4091C33.1358 22.4132 33.3647 22.417 33.5838 22.419C34.7113 22.4351 35.6074 22.4272 36.4918 23.4669C36.8911 23.9376 37.2097 24.6631 37.2135 25.2754C37.2176 26.4125 37.2379 28.5106 37.3799 29.7815C37.329 29.4391 37.2499 28.3403 36.7431 27.9208Z" fill="#B18965"/>
<path d="M37.2916 28.6454C37.2916 28.6454 37.2916 28.6454 37.2914 28.6454C37.2678 28.2055 37.2511 27.7382 37.2398 27.2813C37.2511 27.7382 37.2678 28.2055 37.2916 28.6454ZM37.1325 28.5419C37.132 28.5409 37.1313 28.5405 37.1308 28.5395C37.0995 28.4537 37.0645 28.3705 37.0242 28.2923C37.0228 28.2887 37.0216 28.2854 37.0201 28.2815C37.0626 28.3635 37.1002 28.4512 37.1325 28.5419ZM33.5838 22.419C33.45 22.4178 33.3123 22.4158 33.1713 22.4134C33.1713 22.4134 33.1713 22.4134 33.1715 22.4134C33.3118 22.4158 33.4502 22.4178 33.5838 22.419Z" fill="#ECDFB6"/>
<path d="M37.2914 28.6454C37.2314 28.6275 37.1759 28.5935 37.1325 28.5419C37.1002 28.4512 37.0626 28.3635 37.0202 28.2815C36.8039 27.7153 36.2804 27.3676 35.7227 27.1578C35.1418 26.9396 34.6672 26.8977 34.3574 26.3091C34.3485 26.292 34.3405 26.2741 34.3316 26.257C34.3015 26.1755 34.2711 26.0925 34.2405 26.0091C34.2255 25.9676 34.2101 25.9264 34.1951 25.8849C34.1944 25.8837 34.1942 25.8823 34.1937 25.8811C34.0842 25.5828 33.9711 25.2737 33.8547 24.9566C33.6504 24.2388 33.4783 23.5096 33.0903 22.8636C32.9832 22.6854 33.0466 22.5142 33.1713 22.4134C33.3124 22.4158 33.45 22.4178 33.5839 22.419C33.6101 22.4192 33.6364 22.4199 33.6627 22.4202C33.6837 22.4414 33.7035 22.4662 33.7208 22.4952C34.0555 23.0524 34.2503 23.6656 34.4235 24.288C34.5809 24.8546 34.6933 25.5736 35.0504 26.0561C35.2433 26.317 35.6216 26.3436 35.9168 26.4538C36.2126 26.5647 36.5039 26.6949 36.7655 26.8733C36.9411 26.9934 37.1002 27.1294 37.2398 27.2813C37.2512 27.7382 37.2678 28.2055 37.2914 28.6454Z" fill="#A47F5D"/>
<path d="M36.2505 35.6016C36.4957 35.8934 36.6216 36.2886 36.5526 36.6616C36.4976 36.9517 36.3337 37.2109 36.141 37.4359C36.0436 37.5494 35.9341 37.6611 35.7981 37.7281C35.5954 37.8275 35.3581 37.8193 35.1309 37.807C34.9183 37.7968 34.701 37.7845 34.5026 37.7057C34.2549 37.6044 34.0584 37.3995 33.9224 37.1685C33.6753 36.7527 33.6061 36.2218 33.7968 35.7759C33.9894 35.332 34.458 35.0055 34.9405 35.0338C35.707 34.9265 36.007 35.3096 36.2505 35.6016Z" fill="#FBC53C"/>
<path d="M36.5526 36.6616C36.6216 36.2886 36.4957 35.8934 36.2505 35.6016C36.007 35.3096 35.707 34.9265 34.9405 35.0338C34.458 35.0055 33.9895 35.332 33.7968 35.7759C33.6061 36.2218 33.6753 36.7528 33.9224 37.1685C34.0584 37.3995 34.2549 37.6044 34.5026 37.7057C34.701 37.7845 34.9183 37.7968 35.1309 37.807C35.3581 37.8193 35.5954 37.8275 35.7981 37.7281C35.9341 37.6611 36.0436 37.5494 36.141 37.4359C36.3337 37.2109 36.4977 36.9517 36.5526 36.6616ZM39.0225 34.8211C39.0203 35.4232 39.0184 36.0231 39.0162 36.623C39.0143 37.3348 39.008 38.0686 38.6958 38.7172C38.6106 38.8956 38.499 39.0697 38.3288 39.1855C38.1219 39.3273 37.8523 39.368 37.5948 39.3921C37.5847 39.3921 37.5745 39.3943 37.5644 39.3943C36.9804 39.4488 36.3923 39.4712 35.8042 39.457C35.1534 39.4449 34.2692 39.1915 33.7339 38.8489C33.2229 38.5226 32.9107 38.1636 32.8034 37.5981C32.6958 37.0346 32.5702 36.0759 32.718 35.5206C32.9979 34.4642 33.825 33.757 34.9221 33.3736C35.3603 33.2198 36.0414 33.1911 36.5097 33.1995C36.7856 33.2053 36.9924 33.2176 37.2056 33.2419C37.3758 33.2603 37.548 33.2885 37.7631 33.3271L37.7732 33.3292C38.2152 33.3717 38.6126 33.3717 38.8156 33.7042C39.0184 34.0386 39.0225 34.4401 39.0225 34.8211Z" fill="#C9A079"/>
<path d="M33.9224 37.1684C33.7939 36.9522 33.7136 36.7048 33.6926 36.4542C33.6929 36.4542 33.6931 36.454 33.6931 36.4538C33.7138 36.7045 33.7939 36.9522 33.9224 37.1684Z" fill="#E9B739"/>
<path d="M36.5531 36.6585C36.5531 36.6577 36.5531 36.6575 36.5533 36.6573C36.5533 36.6575 36.5531 36.6577 36.5531 36.6585Z" fill="#E9B739"/>
<path d="M36.5543 36.6522C36.5888 36.455 36.5678 36.2517 36.5054 36.0612C36.5059 36.0617 36.5066 36.0624 36.5073 36.0626C36.549 36.1897 36.5712 36.3221 36.5712 36.455C36.5714 36.5208 36.5659 36.5869 36.5543 36.6522Z" fill="#E9B739"/>
<path d="M34.9896 38.4947C34.7205 38.4947 34.4526 38.4353 34.2216 38.3087C33.6945 38.0201 33.5757 37.4019 33.5646 36.8552C33.561 36.6874 33.6111 36.5546 33.6926 36.4542C33.7136 36.7048 33.7939 36.9522 33.9224 37.1685C34.0584 37.3995 34.2549 37.6044 34.5026 37.7057C34.701 37.7845 34.9183 37.7968 35.1309 37.807C35.1331 37.807 35.135 37.8074 35.1372 37.8074C35.1386 37.8074 35.1401 37.8077 35.1418 37.8077C35.2076 37.8111 35.2744 37.8142 35.3407 37.8142C35.341 37.8142 35.341 37.8142 35.341 37.8142C35.3414 37.8142 35.3417 37.8142 35.3417 37.8142C35.4962 37.8142 35.6491 37.7978 35.7866 37.7337C35.788 37.7327 35.7895 37.7322 35.7909 37.7315C35.7921 37.731 35.7933 37.7303 35.7945 37.7298C35.7957 37.7291 35.7969 37.7286 35.7981 37.7281C35.8661 37.6946 35.9274 37.6497 35.984 37.5994C36.0407 37.5492 36.0923 37.493 36.141 37.4359C36.3337 37.2109 36.4976 36.9517 36.5526 36.6616C36.5526 36.6609 36.5529 36.6602 36.5529 36.6597C36.5531 36.659 36.5531 36.6587 36.5531 36.6585C36.5531 36.6578 36.5533 36.6575 36.5533 36.6573C36.5533 36.657 36.5533 36.6568 36.5533 36.6563C36.5538 36.6558 36.5538 36.6551 36.5538 36.6546C36.5538 36.6546 36.5538 36.6546 36.5538 36.6544C36.5541 36.6537 36.5541 36.6529 36.5543 36.6522C36.5659 36.5869 36.5714 36.5208 36.5712 36.455C36.5712 36.3221 36.549 36.1897 36.5073 36.0627C36.7694 36.2657 36.9199 36.577 36.8805 36.9741C36.8263 37.526 36.3363 38.0153 35.8693 38.2733C35.6093 38.4168 35.2983 38.4947 34.9896 38.4947Z" fill="#BA9470"/>
<path d="M37.384 29.8172C37.5929 31.0904 37.7168 32.1991 37.7735 33.2755L37.7636 33.3324C37.5485 33.2938 37.3761 33.2656 37.2056 33.2473C36.9927 33.2229 36.786 33.2108 36.51 33.2048C36.0419 33.1964 35.3605 33.2248 34.9224 33.3791C33.8253 33.7623 32.9979 34.4695 32.7182 35.5259C32.5702 36.0812 32.6958 37.0402 32.8036 37.6034C32.9109 38.1694 33.2232 38.5279 33.7341 38.8542C34.2694 39.1968 35.1536 39.4502 35.8047 39.4623C36.3925 39.4765 36.9806 39.4543 37.5646 39.3996C37.575 39.3996 37.5849 39.3974 37.595 39.3974L37.6112 39.5638C37.4185 42.1709 38.0573 43.1455 35.9952 44.7514C35.4437 45.1792 34.7883 45.5032 34.0929 45.5621C33.438 45.6168 31.5442 45.6006 30.8893 45.5478C30.0309 45.482 29.1004 45.5032 28.0435 45.5242C26.8504 45.5481 25.4967 45.572 23.9055 45.4709C22.2625 45.3672 21.0161 45.4167 19.8279 45.4659C18.248 45.531 16.7713 45.5965 14.6022 45.3026C12.9374 45.0776 12.5463 44.7815 11.4027 43.5532C10.1512 42.2111 10.0784 40.1862 10.0765 38.3517C10.0743 35.6535 9.96482 27.5065 9.96265 24.8083H9.96482C9.98724 25.4022 10.271 25.9963 10.7639 26.345C11.0193 26.5251 11.3011 26.6551 11.597 26.7503C12.2177 26.9449 12.901 26.9833 13.5581 27.0136C13.5701 27.0136 13.5805 27.0136 13.5926 27.0158C15.1944 27.0869 17.0296 27.1576 18.6295 27.1417C18.9702 27.1376 19.3087 27.1335 19.6473 27.1294C24.0739 27.0706 28.1458 26.9449 32.0491 26.8822C32.7527 26.8697 33.4525 26.8617 34.1457 26.8555C34.2636 26.8555 34.4054 26.868 34.5658 26.8943V26.8962C35.1637 26.9994 36.0072 27.3158 36.7434 27.9261C37.2505 28.3454 37.3295 29.4444 37.3802 29.7868C37.3802 29.797 37.3824 29.8073 37.384 29.8172Z" fill="#C9A079"/>
<path d="M9.95105 28.3263C10.2288 28.5007 10.5336 28.6261 10.8541 28.696C11.1403 28.7584 11.2625 28.3189 10.9754 28.2562C10.6891 28.1935 10.4294 28.0884 10.1813 27.9326C9.932 27.7759 9.70268 28.1703 9.95105 28.3263Z" fill="#DFBD9B"/>
<path d="M12.0462 28.8291C12.3425 28.8067 12.6353 28.8185 12.928 28.8739C13.2149 28.9289 13.3379 28.4891 13.049 28.4346C12.7165 28.3712 12.384 28.3476 12.0462 28.3731C11.7551 28.3951 11.7525 28.8513 12.0462 28.8291Z" fill="#DFBD9B"/>
<path d="M14.4003 28.941C14.7666 28.954 15.1326 28.967 15.4989 28.98C15.7923 28.9902 15.7921 28.5342 15.4989 28.5238C15.1326 28.511 14.7666 28.498 14.4003 28.485C14.1068 28.4744 14.1071 28.9306 14.4003 28.941Z" fill="#DFBD9B"/>
<path d="M17.0708 28.9993C17.4197 29.0362 17.7568 29.0466 18.1011 28.9704C18.3878 28.9075 18.2665 28.4676 17.9801 28.5306C17.6774 28.5974 17.3765 28.5759 17.0708 28.5434C16.7795 28.5125 16.7814 28.9687 17.0708 28.9993Z" fill="#DFBD9B"/>
<path d="M19.2366 28.9407C19.5491 29 19.8596 29.0174 20.176 28.9817C20.4644 28.9489 20.4675 28.4922 20.176 28.5258C19.9016 28.5566 19.6296 28.5525 19.3581 28.5009C19.0712 28.4464 18.9479 28.8858 19.2366 28.9407Z" fill="#DFBD9B"/>
<path d="M21.5256 28.9195C21.7665 28.9195 22.0072 28.9195 22.248 28.9195C22.5413 28.9195 22.5417 28.4635 22.248 28.4635C22.0072 28.4635 21.7665 28.4635 21.5256 28.4635C21.2322 28.4635 21.2317 28.9195 21.5256 28.9195Z" fill="#DFBD9B"/>
<path d="M23.5978 28.8906C23.9533 28.8761 24.3089 28.8619 24.6643 28.8474C24.9571 28.8356 24.9585 28.3796 24.6643 28.3914C24.3089 28.4057 23.9533 28.4201 23.5978 28.4346C23.3051 28.4459 23.3037 28.9024 23.5978 28.8906Z" fill="#DFBD9B"/>
<path d="M25.9524 28.8207C26.2866 28.8534 26.6206 28.8653 26.9565 28.8561C27.2495 28.8481 27.2507 28.3922 26.9565 28.4001C26.6206 28.4088 26.2866 28.397 25.9524 28.3647C25.6602 28.336 25.6624 28.7924 25.9524 28.8207Z" fill="#DFBD9B"/>
<path d="M28.3693 28.798C28.6832 28.7838 28.9967 28.7695 29.3104 28.7555C29.6029 28.7423 29.6046 28.2858 29.3104 28.2991C28.9967 28.3133 28.6832 28.3278 28.3693 28.3415C28.0768 28.3548 28.0753 28.8112 28.3693 28.798Z" fill="#DFBD9B"/>
<path d="M30.5343 28.6861C30.9004 28.6622 31.2666 28.6574 31.6336 28.6714C31.9273 28.6822 31.9266 28.2263 31.6336 28.2152C31.2666 28.2014 30.9004 28.2063 30.5343 28.2301C30.2426 28.2489 30.2404 28.7054 30.5343 28.6861Z" fill="#DFBD9B"/>
<path d="M32.9523 28.7309C33.2513 28.7194 33.5428 28.743 33.8353 28.8079C34.1216 28.8718 34.2438 28.4322 33.9566 28.3681C33.6258 28.2947 33.2909 28.2617 32.9523 28.275C32.6596 28.2861 32.6582 28.7425 32.9523 28.7309Z" fill="#DFBD9B"/>
<path d="M34.7109 29.2617C34.9568 29.3318 35.1449 29.4927 35.2623 29.7186C35.3976 29.9793 35.7916 29.749 35.6561 29.4883C35.4859 29.1606 35.1861 28.9229 34.8322 28.8218C34.5493 28.7406 34.4288 29.1809 34.7109 29.2617Z" fill="#DFBD9B"/>
<path d="M35.3661 30.6064C35.3357 30.9122 35.3586 31.2148 35.4258 31.5152C35.4897 31.8012 35.9298 31.6799 35.8657 31.3937C35.8073 31.1328 35.796 30.8722 35.8225 30.6064C35.8514 30.3144 35.395 30.3164 35.3661 30.6064Z" fill="#DFBD9B"/>
<path d="M35.3788 32.398C35.3397 32.6702 35.3291 32.9367 35.3612 33.2104C35.3757 33.3324 35.4557 33.4382 35.5895 33.4382C35.7017 33.4382 35.8321 33.3333 35.8176 33.2104C35.7906 32.981 35.7861 32.7484 35.8186 32.5193C35.8365 32.3966 35.7887 32.2755 35.6595 32.2386C35.5526 32.208 35.3962 32.2762 35.3788 32.398Z" fill="#DFBD9B"/>
<path d="M35.4953 39.5595C35.4777 39.8307 35.4842 40.1003 35.5143 40.3706C35.528 40.4941 35.6093 40.597 35.7427 40.5985C35.8553 40.5997 35.9843 40.4931 35.9708 40.3706C35.9404 40.1003 35.9341 39.8307 35.9515 39.5595C35.9703 39.2662 35.5138 39.2677 35.4953 39.5595Z" fill="#DFBD9B"/>
<path d="M37.5738 40.3378C37.5796 40.0962 37.5909 39.8394 37.6112 39.5638C37.5909 39.8396 37.5798 40.096 37.5743 40.3378C37.574 40.3378 37.5738 40.3378 37.5738 40.3378Z" fill="#ECDFB6"/>
<path d="M36.2273 40.4147C36.1415 40.4147 36.0557 40.414 35.9701 40.4116C35.972 40.3983 35.9722 40.3844 35.9708 40.3706C35.9404 40.1003 35.9341 39.8307 35.9515 39.5595C35.9525 39.544 35.9522 39.5296 35.9505 39.5161C36.0631 39.5202 36.1755 39.5221 36.2879 39.5221C36.7209 39.5221 37.155 39.4924 37.5994 39.4432L37.6112 39.5638C37.5909 39.8394 37.5796 40.0962 37.5738 40.3378C37.1226 40.3868 36.6744 40.4147 36.2273 40.4147Z" fill="#BA9470"/>
<path d="M33.5942 38.7606C33.1718 38.4623 32.908 38.1252 32.8077 37.6251C32.908 38.1248 33.172 38.4616 33.594 38.7599L33.5942 38.7606ZM32.7896 37.5292C32.7614 37.3749 32.7329 37.1962 32.709 37.0069C32.7329 37.1959 32.7614 37.3749 32.7896 37.5292Z" fill="#ECDFB6"/>
<path d="M35.5172 40.3901C34.965 40.3501 34.4153 40.2607 33.866 40.1071C32.7725 39.8016 32.3298 38.383 32.4602 37.3679C32.4826 37.194 32.5832 37.0742 32.709 37.0069C32.7329 37.1962 32.7614 37.3749 32.7896 37.5292C32.7942 37.5547 32.7987 37.5796 32.8036 37.6034C32.8036 37.6046 32.8038 37.6056 32.8041 37.6068C32.8041 37.6071 32.8041 37.6075 32.8041 37.608C32.8045 37.6085 32.8045 37.6092 32.8048 37.6097C32.8048 37.6102 32.8048 37.6109 32.805 37.6112C32.805 37.6121 32.805 37.6124 32.8053 37.6128C32.8053 37.6136 32.8053 37.6141 32.8055 37.6148C32.8055 37.615 32.8055 37.6155 32.806 37.6162C32.806 37.6165 32.8062 37.6172 32.8062 37.6177C32.8062 37.6182 32.8062 37.6186 32.8065 37.6191C32.8065 37.6198 32.8067 37.6203 32.8067 37.6213C32.8067 37.6215 32.8067 37.6218 32.8072 37.622C32.8072 37.6227 32.8074 37.6235 32.8074 37.6242C32.8074 37.6244 32.8074 37.6247 32.8077 37.6251C32.908 38.1252 33.1718 38.4623 33.5942 38.7606L33.5962 38.7635C33.8587 39.2262 34.1708 39.2679 34.666 39.3668C34.951 39.4235 35.2315 39.4633 35.5102 39.4881C35.502 39.5095 35.4972 39.5334 35.4953 39.5595C35.4777 39.8307 35.4842 40.1003 35.5143 40.3706C35.515 40.3771 35.516 40.3836 35.5172 40.3901Z" fill="#BA9470"/>
<path d="M35.97 40.4116C35.8186 40.408 35.6679 40.4008 35.5172 40.3902C35.516 40.3836 35.515 40.3771 35.5143 40.3706C35.4842 40.1003 35.4777 39.8307 35.4953 39.5595C35.4972 39.5334 35.502 39.5096 35.5102 39.4881C35.6573 39.5014 35.8039 39.5105 35.9505 39.5161C35.9522 39.5296 35.9524 39.544 35.9515 39.5595C35.9341 39.8307 35.9404 40.1003 35.9708 40.3706C35.9722 40.3844 35.972 40.3984 35.97 40.4116Z" fill="#CEAF8F"/>
<path d="M35.3641 41.6216C35.3764 41.8825 35.3402 42.1275 35.2539 42.3739C35.1572 42.6514 35.5977 42.771 35.6939 42.4952C35.7921 42.214 35.8343 41.9189 35.8203 41.6216C35.8063 41.3293 35.3501 41.3274 35.3641 41.6216Z" fill="#DFBD9B"/>
<path d="M34.5916 43.375C34.4597 43.5528 34.2465 43.6685 34.0268 43.6875C33.7365 43.7126 33.7339 44.1688 34.0268 44.1438C34.422 44.1095 34.75 43.9229 34.9856 43.6051C35.0596 43.5055 35.0012 43.3514 34.9038 43.2931C34.7883 43.2241 34.6646 43.2767 34.5916 43.375Z" fill="#DFBD9B"/>
<path d="M32.7064 43.825C32.3985 43.8165 32.0903 43.8083 31.7824 43.8001C31.4887 43.7924 31.4887 44.2484 31.7824 44.2561C32.0903 44.2648 32.3985 44.2728 32.7064 44.281C33.0001 44.2889 32.9999 43.8327 32.7064 43.825Z" fill="#DFBD9B"/>
<path d="M30.2341 43.7912C29.9525 43.811 29.6781 43.7736 29.4003 43.7278C29.1129 43.6808 28.9897 44.1201 29.279 44.1676C29.5956 44.22 29.9122 44.2696 30.2341 44.2477C30.5254 44.2272 30.5278 43.771 30.2341 43.7912Z" fill="#DFBD9B"/>
<path d="M27.8764 43.7818C27.5328 43.7862 27.1899 43.7792 26.8468 43.7604C26.5534 43.7442 26.5543 44.2004 26.8468 44.2163C27.1899 44.2356 27.5328 44.2426 27.8764 44.2383C28.1696 44.2339 28.1706 43.778 27.8764 43.7818Z" fill="#DFBD9B"/>
<path d="M25.5447 43.7751C25.171 43.7025 24.8049 43.7001 24.4302 43.7659C24.1416 43.8163 24.2638 44.2561 24.5515 44.2057C24.8411 44.1551 25.135 44.1587 25.4237 44.2149C25.7104 44.2706 25.8331 43.831 25.5447 43.7751Z" fill="#DFBD9B"/>
<path d="M22.6794 43.8132C22.5885 43.8122 22.4986 43.8211 22.4089 43.8298C22.3146 43.839 22.2205 43.8481 22.1255 43.8465C21.9401 43.8426 21.7576 43.8281 21.5719 43.839C21.2801 43.8561 21.2782 44.3126 21.5719 44.2954C21.7578 44.2846 21.9401 44.2995 22.1255 44.3024C22.2198 44.3039 22.3131 44.2952 22.4064 44.286C22.4969 44.2771 22.5878 44.2682 22.6794 44.2694C22.9731 44.2723 22.9731 43.8163 22.6794 43.8132Z" fill="#DFBD9B"/>
<path d="M20.0232 43.8785C19.6516 43.8091 19.2778 43.7746 18.8997 43.7806C18.6063 43.7855 18.6056 44.2417 18.8997 44.2366C19.2373 44.2313 19.5701 44.2564 19.9016 44.3183C20.1888 44.3721 20.3118 43.9328 20.0232 43.8785Z" fill="#DFBD9B"/>
<path d="M17.2904 43.8163C16.9309 43.783 16.5712 43.7635 16.2104 43.757C15.9168 43.7517 15.9168 44.2079 16.2104 44.2132C16.5712 44.2195 16.9309 44.2392 17.2904 44.2723C17.5825 44.2993 17.5808 43.8428 17.2904 43.8163Z" fill="#DFBD9B"/>
<path d="M15.0928 43.7131C14.7917 43.6856 14.4903 43.6586 14.1889 43.6314C13.8966 43.6048 13.8985 44.0613 14.1889 44.0873C14.4903 44.1146 14.7917 44.1421 15.0928 44.1691C15.3853 44.1956 15.3834 43.7394 15.0928 43.7131Z" fill="#DFBD9B"/>
<path d="M12.2335 43.7076C12.4886 43.8149 12.7505 43.8978 13.0213 43.9564C13.3075 44.0186 13.43 43.5788 13.1426 43.5166C12.872 43.458 12.6099 43.375 12.3548 43.2677C12.2403 43.2193 12.1048 43.3196 12.0739 43.4269C12.0363 43.5583 12.1204 43.6601 12.2335 43.7076Z" fill="#DFBD9B"/>
<path d="M10.9196 43.0857C11.0807 43.1723 11.2336 43.2716 11.4185 43.2902C11.5413 43.3025 11.6466 43.1766 11.6466 43.0621C11.6466 42.9285 11.5415 42.8465 11.4185 42.8342C11.3843 42.8306 11.3336 42.7901 11.304 42.7746C11.2526 42.7472 11.2013 42.7197 11.1499 42.6919C10.8909 42.5535 10.6602 42.9471 10.9196 43.0857Z" fill="#DFBD9B"/>
<path d="M32.7558 45.5961C33.2863 45.5961 33.7864 45.5862 34.0724 45.5638C33.7862 45.5862 33.2863 45.5961 32.7558 45.5961Z" fill="#DBCFA8"/>
<path d="M36.0043 44.7439C36.0045 44.7437 36.005 44.7434 36.0055 44.7432C36.0052 44.7434 36.0045 44.7437 36.0043 44.7439ZM36.0084 44.7408C36.0091 44.7405 36.0096 44.7398 36.0098 44.7396C36.0093 44.7403 36.0091 44.7403 36.0084 44.7408ZM36.0134 44.7369C36.0142 44.7367 36.0146 44.736 36.0151 44.7355C36.0146 44.736 36.0142 44.7364 36.0134 44.7369ZM36.0183 44.7331C36.0185 44.7331 36.0187 44.7328 36.019 44.7326C36.0187 44.7328 36.0185 44.7328 36.0183 44.7331ZM36.0228 44.7295C36.0236 44.729 36.0238 44.729 36.024 44.7285C36.0238 44.7287 36.0236 44.7292 36.0228 44.7295ZM36.0277 44.7258C36.0279 44.7254 36.0289 44.7249 36.0293 44.7246C36.0289 44.7249 36.0281 44.7254 36.0277 44.7258ZM36.032 44.7225C36.0327 44.722 36.0332 44.7213 36.0337 44.721C36.033 44.7215 36.0327 44.722 36.032 44.7225ZM36.0462 44.7114C36.0467 44.7106 36.0477 44.7102 36.0482 44.7094C36.0474 44.7102 36.0467 44.7106 36.0462 44.7114ZM36.0554 44.7039C36.0561 44.7034 36.0566 44.7029 36.0571 44.7024C36.0566 44.7027 36.0559 44.7034 36.0554 44.7039ZM36.074 44.6892C36.0742 44.6889 36.0744 44.6885 36.0752 44.6882C36.0749 44.6885 36.0742 44.6889 36.074 44.6892ZM36.1022 44.6665C36.1026 44.666 36.1026 44.666 36.1026 44.666L36.1022 44.6665ZM36.1067 44.6627C36.107 44.6627 36.1067 44.6629 36.107 44.6627H36.1067Z" fill="#DBCFA8"/>
<path d="M10.0764 38.3517C10.0752 36.6563 10.0316 32.8108 9.99853 29.517C10.0316 32.8113 10.0752 36.6563 10.0764 38.3517ZM37.5328 42.3148C37.5328 42.3143 37.5328 42.3143 37.5328 42.3143V42.3148ZM37.533 42.3117C37.5728 41.9244 37.5673 41.5012 37.5673 41.0091C37.5673 41.0089 37.5673 41.0089 37.5673 41.0086C37.5673 41.5005 37.5728 41.9242 37.533 42.3117ZM9.99853 29.5081C9.99853 29.5059 9.99853 29.5035 9.99853 29.5013C9.99853 29.5035 9.99853 29.5062 9.99853 29.5081ZM13.5318 27.0124C12.9974 26.9878 12.4464 26.9563 11.9266 26.8386C12.4322 26.9529 12.9673 26.9857 13.4876 27.0105C13.5014 27.011 13.5161 27.012 13.5318 27.0124ZM10.7537 26.3375C10.4762 26.1381 10.2657 25.8606 10.1321 25.5493C10.1321 25.5493 10.1321 25.5493 10.1324 25.5488C10.2659 25.8603 10.4762 26.1381 10.7537 26.3375Z" fill="#ECDFB6"/>
<path d="M32.7554 45.5961C32.7551 45.5961 32.7549 45.5961 32.7546 45.5961C32.0395 45.5961 31.2691 45.5782 30.8946 45.5483C30.8929 45.5481 30.891 45.5481 30.8893 45.5478C30.8789 45.5471 30.8688 45.5464 30.8587 45.5454C30.4326 45.5138 29.9887 45.5035 29.5204 45.5035C29.0545 45.5035 28.5641 45.5138 28.0435 45.5242C27.5224 45.5348 26.9712 45.5452 26.3826 45.5452C25.6573 45.5452 24.8758 45.5293 24.0259 45.4782C24.0218 45.4782 24.0179 45.4779 24.0138 45.4777C24.0119 45.4777 24.0097 45.4774 24.0078 45.4774C24.0039 45.4769 24.0001 45.4767 23.9962 45.4765C23.9661 45.4745 23.9359 45.4729 23.9055 45.4709C23.5253 45.4471 23.166 45.4309 22.8238 45.4215C22.8217 45.4215 22.8195 45.4215 22.8173 45.4215C22.8171 45.4215 22.8168 45.4215 22.8166 45.4215C22.5217 45.4133 22.2396 45.4097 21.9676 45.4097C20.9177 45.4097 20.0164 45.461 19.1088 45.4943C17.6085 45.4314 16.1077 45.3699 14.6077 45.3033L14.6021 45.3026C12.9374 45.0776 12.5463 44.7815 11.4026 43.5532C11.2922 43.4346 11.1912 43.3111 11.0981 43.1829C11.1991 43.235 11.3023 43.2786 11.4185 43.2902C11.4241 43.2911 11.4296 43.2911 11.4354 43.2911C11.5507 43.2911 11.6467 43.1713 11.6467 43.0621C11.6467 42.9285 11.5415 42.8465 11.4185 42.8342C11.3843 42.8306 11.3337 42.7901 11.304 42.7746C11.2527 42.7472 11.2013 42.7197 11.1499 42.6919C11.1123 42.6719 11.0752 42.663 11.04 42.663C10.9563 42.663 10.884 42.7134 10.843 42.7814C10.1276 41.5003 10.0781 39.8616 10.0764 38.3517C10.0752 36.6563 10.0316 32.8113 9.99856 29.517C9.99856 29.5141 9.99856 29.5112 9.99856 29.5081C9.99856 29.5062 9.99856 29.5035 9.99856 29.5014C9.99856 29.4999 9.99856 29.4994 9.99856 29.4982C9.99856 29.4944 9.99856 29.4905 9.99807 29.4866C9.99422 29.0982 9.99084 28.7172 9.98722 28.3488C10.2551 28.5115 10.5474 28.629 10.8541 28.696C10.8729 28.7001 10.891 28.702 10.9086 28.702C11.1548 28.702 11.2435 28.3148 10.9754 28.2562C10.6891 28.1935 10.4294 28.0883 10.1813 27.9326C10.1413 27.9075 10.1018 27.8964 10.0646 27.8964C10.0357 27.8964 10.0082 27.9029 9.98312 27.9147C9.97565 27.0918 9.96986 26.3428 9.966 25.7224C10.0183 25.6621 10.0733 25.6043 10.1321 25.5493C10.2657 25.8606 10.4762 26.1381 10.7538 26.3375C10.7538 26.3375 10.7538 26.338 10.754 26.338C10.755 26.3385 10.7559 26.3395 10.7567 26.3399C10.7571 26.3399 10.7571 26.3402 10.7574 26.3402C10.7581 26.3409 10.7591 26.3414 10.76 26.3421C10.7603 26.3424 10.7603 26.3424 10.7605 26.3426C10.7615 26.3433 10.7627 26.344 10.7639 26.345C10.9406 26.4697 11.1297 26.57 11.3276 26.6517C11.3175 26.822 11.4468 26.9958 11.6134 26.9958C11.6638 26.9958 11.7175 26.9801 11.7718 26.9435C11.8236 26.9083 11.875 26.8736 11.9266 26.8386C12.4465 26.9563 12.9974 26.9878 13.5318 27.0124C13.9439 27.0351 15.0316 27.1299 14.8898 27.1299C14.886 27.1299 14.8814 27.1299 14.8753 27.1299C14.8712 27.1296 14.8662 27.1296 14.8609 27.1296C14.5862 27.1296 12.8588 27.2712 12.2331 27.7963C11.5955 28.3314 11.4545 28.9834 11.4431 29.2689C11.3708 31.0573 11.3583 32.8484 11.4055 34.6376C11.4475 36.2382 11.536 37.8381 11.6749 39.4329C11.7364 40.1367 11.8212 40.8215 12.0587 41.4945C12.1933 41.8757 12.4911 42.3589 12.8248 42.6302C13.2509 42.9769 13.7975 42.9967 14.3195 43.0204C15.094 43.0551 15.8688 43.0857 16.6433 43.1187C18.2528 43.187 19.8623 43.2569 21.4723 43.3222C23.9487 43.4235 26.4265 43.5082 28.9053 43.5082C29.6511 43.5082 30.3976 43.5004 31.1437 43.4833C31.9488 43.4645 32.7544 43.4351 33.5588 43.3917C33.9186 43.3722 34.2786 43.3529 34.6378 43.3247C34.6207 43.3394 34.6055 43.3565 34.5915 43.375C34.4596 43.5528 34.2465 43.6685 34.0268 43.6875C33.7442 43.7119 33.7341 44.1447 34.0039 44.1447C34.0111 44.1447 34.0189 44.1445 34.0268 44.1438C34.422 44.1095 34.75 43.9229 34.9855 43.6051C35.0559 43.5098 35.0063 43.3652 34.9166 43.3017C35.1237 43.2834 35.2363 43.2692 35.5015 43.2135C36.1304 43.0816 36.5092 42.9292 36.8989 42.4925C37.2169 42.1357 37.4052 41.5938 37.5557 41.0436C37.5591 41.0315 37.5634 41.0209 37.5673 41.0091C37.5673 41.5013 37.5728 41.9244 37.533 42.3117C37.5328 42.3129 37.5328 42.3136 37.5328 42.3143C37.5328 42.3143 37.5328 42.3143 37.5328 42.3148C37.4453 43.1551 37.1436 43.8269 36.107 44.6627C36.1068 44.6629 36.107 44.6627 36.1068 44.6627C36.1056 44.6639 36.1041 44.6651 36.1027 44.666C36.1027 44.666 36.1027 44.666 36.1022 44.6665C36.1007 44.6677 36.0993 44.6689 36.0979 44.6699C36.0979 44.6699 36.0976 44.6699 36.0976 44.6704C36.0964 44.6711 36.095 44.6723 36.0935 44.6735C36.0935 44.6735 36.093 44.6735 36.093 44.6738C36.0916 44.675 36.0904 44.6759 36.0889 44.6771C36.0887 44.6774 36.0885 44.6774 36.0882 44.6776C36.087 44.6788 36.0858 44.6798 36.0846 44.6805C36.0844 44.681 36.0841 44.681 36.0841 44.6812C36.0829 44.6822 36.0815 44.6832 36.0803 44.6841C36.0798 44.6844 36.0793 44.6848 36.079 44.6853C36.0776 44.6863 36.0764 44.687 36.0752 44.6882C36.0745 44.6885 36.0742 44.6889 36.074 44.6892C36.073 44.6897 36.0725 44.6904 36.0716 44.6911C36.0706 44.6916 36.0701 44.6921 36.0696 44.6928C36.0684 44.6935 36.0672 44.6945 36.0663 44.6955C36.0658 44.6957 36.0651 44.6962 36.0646 44.6964C36.0639 44.6971 36.0631 44.6976 36.0624 44.6984C36.0617 44.6988 36.0607 44.6998 36.0598 44.7003C36.059 44.701 36.0581 44.702 36.0571 44.7025C36.0566 44.7029 36.0561 44.7034 36.0554 44.7039C36.0547 44.7046 36.0535 44.7051 36.053 44.7061C36.052 44.7066 36.0513 44.7073 36.0504 44.708C36.0494 44.7082 36.0489 44.709 36.0482 44.7094C36.0477 44.7102 36.0467 44.7106 36.0463 44.7114C36.045 44.7121 36.0438 44.7131 36.0426 44.714C36.0424 44.7143 36.0422 44.7145 36.0414 44.7147C36.0407 44.7155 36.0397 44.7162 36.0385 44.7172C36.0383 44.7174 36.0376 44.7179 36.0371 44.7184C36.0361 44.7193 36.0347 44.7201 36.0337 44.721C36.0332 44.7213 36.0328 44.722 36.032 44.7225C36.0311 44.7232 36.0301 44.7239 36.0294 44.7246C36.0289 44.7249 36.0279 44.7254 36.0277 44.7258C36.0265 44.7266 36.0253 44.7275 36.0241 44.7285C36.0238 44.729 36.0236 44.729 36.0229 44.7295C36.0217 44.7304 36.0202 44.7316 36.019 44.7326C36.0188 44.7328 36.0185 44.7331 36.0183 44.7331C36.0173 44.734 36.0161 44.735 36.0151 44.7355C36.0147 44.736 36.0142 44.7367 36.0135 44.7369C36.0123 44.7379 36.011 44.7386 36.0098 44.7396C36.0096 44.7398 36.0091 44.7405 36.0084 44.7408C36.0077 44.7418 36.0065 44.7422 36.0055 44.7432C36.005 44.7434 36.0045 44.7437 36.0043 44.7439C36.0029 44.7451 36.0016 44.7461 36.0004 44.7471C36 44.7475 35.9997 44.7478 35.9992 44.7483C35.9978 44.749 35.9963 44.7502 35.9951 44.7514C35.4437 45.1792 34.7883 45.5032 34.0929 45.5621C34.0914 45.5623 34.09 45.5623 34.0885 45.5625C34.0878 45.5625 34.0876 45.5625 34.0871 45.5625C34.0859 45.5628 34.0847 45.5628 34.0835 45.5628C34.083 45.5628 34.0823 45.563 34.0818 45.563C34.0794 45.563 34.077 45.5635 34.0746 45.5638H34.0743C34.0738 45.5638 34.0729 45.5638 34.0724 45.5638C33.7864 45.5862 33.2863 45.5961 32.7558 45.5961H32.7554ZM18.9894 44.2361C19.2962 44.2361 19.5993 44.2617 19.9016 44.3183C19.9183 44.3217 19.9342 44.3232 19.9498 44.3232C20.2018 44.3232 20.2954 43.9296 20.0232 43.8785C19.6798 43.8144 19.335 43.7801 18.9861 43.7801C18.9576 43.7801 18.9287 43.7801 18.8997 43.7806C18.608 43.7854 18.6056 44.2366 18.8952 44.2366C18.8966 44.2366 18.8983 44.2366 18.8997 44.2366C18.9299 44.2364 18.9595 44.2361 18.9894 44.2361ZM21.7154 44.2913C21.8523 44.2913 21.9881 44.3 22.1255 44.3024C22.1325 44.3024 22.14 44.3027 22.1468 44.3027C22.2338 44.3027 22.3199 44.2942 22.4064 44.286C22.4925 44.2776 22.5786 44.2691 22.6657 44.2691C22.6702 44.2691 22.6748 44.2691 22.6794 44.2694C22.6806 44.2694 22.6813 44.2694 22.6823 44.2694C22.9731 44.2694 22.9724 43.8163 22.6794 43.8132C22.6748 43.8132 22.6702 43.8132 22.6657 43.8132C22.5793 43.8132 22.494 43.8214 22.4089 43.8298C22.3233 43.8383 22.2379 43.8467 22.1518 43.8467C22.1429 43.8467 22.1345 43.8465 22.1255 43.8465C21.9898 43.8436 21.8552 43.8354 21.7197 43.8354C21.6705 43.8354 21.6216 43.8361 21.5719 43.839C21.2854 43.8559 21.2785 44.2957 21.556 44.2957C21.5613 44.2957 21.5664 44.2957 21.5719 44.2954C21.6199 44.2925 21.6679 44.2913 21.7154 44.2913ZM31.7749 43.8002C31.4887 43.8002 31.4914 44.2484 31.7824 44.2561C32.0903 44.2648 32.3985 44.2728 32.7064 44.281C32.7088 44.281 32.7112 44.281 32.7139 44.281C33.0001 44.281 32.9974 43.8327 32.7064 43.825C32.3985 43.8166 32.0903 43.8084 31.7824 43.8002C31.78 43.8002 31.7773 43.8002 31.7749 43.8002ZM16.2056 43.757C15.9168 43.757 15.9185 44.2081 16.2105 44.2132C16.5712 44.2195 16.9309 44.2392 17.2905 44.2723C17.2987 44.273 17.3066 44.2735 17.3146 44.2735C17.5822 44.2735 17.5726 43.8421 17.2905 43.8163C16.9309 43.783 16.5712 43.7635 16.2105 43.757C16.2088 43.757 16.2071 43.757 16.2056 43.757ZM29.3579 43.7244C29.1018 43.7244 29.0044 44.1225 29.279 44.1676C29.5423 44.211 29.8059 44.253 30.0723 44.253C30.1259 44.253 30.1799 44.2511 30.2341 44.2477C30.5191 44.2274 30.5276 43.7908 30.2532 43.7908C30.2469 43.7908 30.2406 43.791 30.2341 43.7912C30.1818 43.7951 30.1292 43.7965 30.0769 43.7965C29.8498 43.7965 29.626 43.7649 29.4003 43.7278C29.3856 43.7254 29.3714 43.7244 29.3579 43.7244ZM26.8316 43.7601C26.5533 43.7601 26.5596 44.2007 26.8468 44.2163C27.1231 44.2318 27.3997 44.2392 27.6765 44.2392C27.7431 44.2392 27.8099 44.239 27.8764 44.2383C28.1686 44.2339 28.1706 43.7818 27.88 43.7818C27.8788 43.7818 27.8776 43.7818 27.8764 43.7818C27.8103 43.7828 27.744 43.7833 27.678 43.7833C27.4009 43.7833 27.1238 43.7756 26.8468 43.7604C26.8417 43.7601 26.8367 43.7601 26.8316 43.7601ZM24.9612 44.17C25.116 44.17 25.2705 44.185 25.4237 44.2149C25.4405 44.218 25.4569 44.22 25.4729 44.22C25.7234 44.22 25.816 43.8276 25.5447 43.7751C25.3501 43.7372 25.1577 43.7184 24.965 43.7184C24.7878 43.7184 24.6099 43.7343 24.4302 43.7659C24.1573 43.8137 24.252 44.2098 24.5064 44.2098C24.5211 44.2098 24.5361 44.2084 24.5515 44.2057C24.6875 44.1819 24.8247 44.17 24.9612 44.17ZM14.165 43.6302C13.8971 43.6302 13.9067 44.0618 14.1889 44.0873C14.4903 44.1146 14.7917 44.1421 15.0928 44.1691C15.101 44.17 15.109 44.1703 15.1169 44.1703C15.3851 44.1703 15.3754 43.7384 15.0928 43.7131C14.7917 43.6856 14.4903 43.6586 14.1889 43.6314C14.1809 43.6306 14.1727 43.6302 14.165 43.6302ZM12.2924 43.255C12.1955 43.255 12.0993 43.3389 12.0739 43.4269C12.0363 43.5583 12.1205 43.6601 12.2336 43.7076C12.4887 43.8149 12.7505 43.8978 13.0213 43.9564C13.0401 43.9605 13.0582 43.9627 13.0753 43.9627C13.322 43.9627 13.411 43.5747 13.1426 43.5166C12.8721 43.458 12.61 43.375 12.3548 43.2677C12.3343 43.2591 12.3134 43.255 12.2924 43.255Z" fill="#BA9470"/>
<path d="M10.9085 28.702C10.8909 28.702 10.8729 28.7001 10.854 28.696C10.5473 28.629 10.2551 28.5115 9.98719 28.3488C9.98575 28.2019 9.98454 28.0572 9.98309 27.9147C10.0082 27.9029 10.0357 27.8964 10.0646 27.8964C10.1017 27.8964 10.1413 27.9075 10.1813 27.9326C10.4294 28.0883 10.6891 28.1935 10.9753 28.2562C11.2435 28.3148 11.1547 28.702 10.9085 28.702Z" fill="#CEAF8F"/>
<path d="M34.0039 44.1447C33.7341 44.1447 33.7442 43.7119 34.0268 43.6875C34.2465 43.6685 34.4597 43.5528 34.5916 43.375C34.6055 43.3565 34.6207 43.3394 34.6379 43.3246C34.6774 43.3218 34.7169 43.3184 34.7565 43.315C34.8168 43.3099 34.8693 43.3058 34.9166 43.3017C35.0063 43.3652 35.056 43.5098 34.9856 43.6051C34.75 43.9229 34.422 44.1095 34.0268 44.1438C34.0189 44.1445 34.0112 44.1447 34.0039 44.1447Z" fill="#CEAF8F"/>
<path d="M32.7139 44.281C32.7112 44.281 32.7088 44.281 32.7064 44.281C32.3985 44.2728 32.0903 44.2648 31.7824 44.2561C31.4914 44.2484 31.4887 43.8002 31.7749 43.8002C31.7774 43.8002 31.78 43.8002 31.7824 43.8002C32.0903 43.8084 32.3985 43.8166 32.7064 43.825C32.9975 43.8327 33.0001 44.281 32.7139 44.281Z" fill="#CEAF8F"/>
<path d="M30.0723 44.253C29.8059 44.253 29.5424 44.211 29.279 44.1676C29.0044 44.1225 29.1018 43.7244 29.3579 43.7244C29.3714 43.7244 29.3856 43.7254 29.4003 43.7278C29.626 43.765 29.8498 43.7965 30.0769 43.7965C30.1293 43.7965 30.1818 43.7951 30.2341 43.7912C30.2407 43.791 30.2469 43.7908 30.2532 43.7908C30.5276 43.7908 30.5192 44.2274 30.2341 44.2477C30.1799 44.2511 30.1259 44.253 30.0723 44.253Z" fill="#CEAF8F"/>
<path d="M27.6765 44.2393C27.3997 44.2393 27.1231 44.2318 26.8468 44.2163C26.5596 44.2007 26.5533 43.7601 26.8316 43.7601C26.8367 43.7601 26.8417 43.7601 26.8468 43.7604C27.1238 43.7756 27.4009 43.7833 27.678 43.7833C27.744 43.7833 27.8103 43.7828 27.8764 43.7818C27.8776 43.7818 27.8788 43.7818 27.88 43.7818C28.1706 43.7818 28.1686 44.2339 27.8764 44.2383C27.8098 44.239 27.7431 44.2393 27.6765 44.2393Z" fill="#CEAF8F"/>
<path d="M25.4729 44.22C25.457 44.22 25.4406 44.218 25.4237 44.2149C25.2706 44.185 25.116 44.17 24.9612 44.17C24.8247 44.17 24.6875 44.1819 24.5515 44.2057C24.5361 44.2084 24.5212 44.2098 24.5064 44.2098C24.2521 44.2098 24.1573 43.8137 24.4302 43.7659C24.6099 43.7343 24.7878 43.7184 24.9651 43.7184C25.1577 43.7184 25.3501 43.7372 25.5447 43.7751C25.816 43.8276 25.7234 44.22 25.4729 44.22Z" fill="#CEAF8F"/>
<path d="M22.1467 44.3027C22.14 44.3027 22.1325 44.3024 22.1255 44.3024C21.9881 44.3 21.8523 44.2913 21.7154 44.2913C21.6679 44.2913 21.6199 44.2925 21.5719 44.2954C21.5664 44.2957 21.5613 44.2957 21.556 44.2957C21.2784 44.2957 21.2854 43.8559 21.5719 43.839C21.6216 43.8361 21.6705 43.8354 21.7197 43.8354C21.8552 43.8354 21.9898 43.8436 22.1255 43.8464C22.1344 43.8464 22.1429 43.8467 22.1518 43.8467C22.2379 43.8467 22.3232 43.8382 22.4088 43.8298C22.494 43.8214 22.5793 43.8132 22.6656 43.8132C22.6702 43.8132 22.6748 43.8132 22.6794 43.8132C22.9724 43.8163 22.9731 44.2694 22.6823 44.2694C22.6813 44.2694 22.6806 44.2694 22.6794 44.2694C22.6748 44.2691 22.6702 44.2691 22.6656 44.2691C22.5786 44.2691 22.4925 44.2776 22.4064 44.286C22.3199 44.2942 22.2338 44.3027 22.1467 44.3027Z" fill="#CEAF8F"/>
<path d="M19.9499 44.3232C19.9342 44.3232 19.9183 44.3217 19.9016 44.3183C19.5993 44.2617 19.2962 44.2361 18.9894 44.2361C18.9595 44.2361 18.9299 44.2363 18.8998 44.2366C18.8983 44.2366 18.8966 44.2366 18.8952 44.2366C18.6056 44.2366 18.608 43.7854 18.8998 43.7806C18.9287 43.7801 18.9576 43.7801 18.9861 43.7801C19.335 43.7801 19.6798 43.8144 20.0232 43.8785C20.2954 43.9296 20.2018 44.3232 19.9499 44.3232Z" fill="#CEAF8F"/>
<path d="M17.3146 44.2735C17.3066 44.2735 17.2987 44.273 17.2905 44.2723C16.931 44.2392 16.5712 44.2195 16.2105 44.2132C15.9185 44.2081 15.9168 43.757 16.2057 43.757C16.2071 43.757 16.2088 43.757 16.2105 43.757C16.5712 43.7635 16.931 43.783 17.2905 43.8163C17.5726 43.8421 17.5822 44.2735 17.3146 44.2735Z" fill="#CEAF8F"/>
<path d="M15.1169 44.1703C15.109 44.1703 15.101 44.17 15.0928 44.1691C14.7917 44.1421 14.4902 44.1146 14.1888 44.0873C13.9067 44.0618 13.8971 43.6302 14.165 43.6302C14.1727 43.6302 14.1809 43.6306 14.1888 43.6314C14.4902 43.6586 14.7917 43.6856 15.0928 43.7131C15.3754 43.7384 15.3851 44.1703 15.1169 44.1703Z" fill="#CEAF8F"/>
<path d="M13.0753 43.9627C13.0582 43.9627 13.0401 43.9605 13.0213 43.9564C12.7505 43.8978 12.4886 43.8149 12.2335 43.7076C12.1204 43.6601 12.0363 43.5583 12.0739 43.4269C12.0992 43.3389 12.1954 43.255 12.2924 43.255C12.3133 43.255 12.3343 43.2591 12.3548 43.2678C12.6099 43.3751 12.872 43.458 13.1426 43.5166C13.411 43.5747 13.322 43.9627 13.0753 43.9627Z" fill="#CEAF8F"/>
<path d="M11.4354 43.2911C11.4296 43.2911 11.4241 43.2911 11.4185 43.2902C11.3023 43.2786 11.1991 43.2349 11.0981 43.1829C11.0048 43.0536 10.9199 42.9193 10.843 42.7814C10.8839 42.7134 10.9563 42.663 11.04 42.663C11.0752 42.663 11.1123 42.6719 11.1499 42.6919C11.2013 42.7197 11.2526 42.7471 11.304 42.7746C11.3336 42.7901 11.3843 42.8306 11.4185 42.8342C11.5415 42.8465 11.6466 42.9285 11.6466 43.0621C11.6466 43.1713 11.5507 43.2911 11.4354 43.2911Z" fill="#CEAF8F"/>
<path d="M17.4235 34.0917L17.4223 34.0941C17.2784 34.2057 17.1788 34.3748 17.1769 34.5645C17.172 34.9412 17.5342 35.2792 17.9147 35.1869C18.3208 35.088 18.4474 34.5421 18.2863 34.2024C18.1267 33.865 17.6531 33.7744 17.4235 34.0917Z" fill="#483B38"/>
<path d="M28.7553 33.9653C28.6678 33.6468 28.3068 33.4182 27.9818 33.5192C27.8846 33.5491 27.8041 33.6145 27.7652 33.7003C27.643 33.7963 27.5555 33.9374 27.5468 34.0996C27.5265 34.4787 27.8836 34.789 28.2547 34.7184C28.5925 34.654 28.8496 34.3072 28.7553 33.9653Z" fill="#483B38"/>
<path d="M26.9254 37.8127C27.1212 37.5663 27.317 37.3201 27.5125 37.0737C27.6148 36.9452 27.6384 36.7691 27.5125 36.6438C27.4067 36.5379 27.1853 36.5145 27.0824 36.6438C26.8868 36.8899 26.6913 37.1364 26.4952 37.3828C26.3932 37.5111 26.3698 37.6873 26.4952 37.8127C26.6013 37.9186 26.8224 37.9422 26.9254 37.8127Z" fill="#FAB9C3"/>
<path d="M28.3369 37.8477C28.5303 37.5962 28.7235 37.3447 28.9168 37.0935C29.0171 36.9628 28.9369 36.7527 28.8076 36.6773C28.6506 36.5856 28.492 36.6558 28.3917 36.7865C28.1983 37.0378 28.0051 37.289 27.8118 37.5407C27.7114 37.671 27.7917 37.881 27.9207 37.9567C28.0777 38.0483 28.2366 37.9782 28.3369 37.8477Z" fill="#FAB9C3"/>
<path d="M29.5631 37.9707C29.7521 37.6977 29.9542 37.4363 30.1707 37.1844C30.4249 36.8887 29.9964 36.4566 29.7405 36.7542C29.4907 37.0452 29.2561 37.3486 29.0377 37.6637C28.9443 37.7988 29.0126 38.0015 29.1469 38.0797C29.2981 38.1682 29.469 38.1062 29.5631 37.9707Z" fill="#FAB9C3"/>
<path d="M15.7101 37.7298C15.8813 37.5473 16.052 37.3645 16.2232 37.182C16.3354 37.0619 16.3419 36.8709 16.2232 36.752C16.1097 36.6385 15.9054 36.6317 15.7931 36.752C15.6219 36.9346 15.4511 37.1171 15.2799 37.3001C15.1678 37.4197 15.1611 37.6112 15.2799 37.7298C15.3935 37.8434 15.5975 37.8501 15.7101 37.7298Z" fill="#FAB9C3"/>
<path d="M17.1284 37.886C17.2943 37.6767 17.4604 37.4674 17.6261 37.2581C17.7283 37.1294 17.7515 36.9536 17.6261 36.8285C17.5202 36.7224 17.2986 36.699 17.1959 36.8285C17.0303 37.0375 16.8641 37.2466 16.6982 37.4561C16.5962 37.5846 16.5728 37.7604 16.6982 37.886C16.8041 37.9917 17.0257 38.0153 17.1284 37.886Z" fill="#FAB9C3"/>
<path d="M18.4426 38.0445C18.6714 37.8431 18.8814 37.6232 19.0724 37.3855C19.1754 37.2574 19.1973 37.0804 19.0724 36.9555C18.9658 36.8492 18.7457 36.8268 18.642 36.9555C18.4513 37.1933 18.2415 37.413 18.0124 37.6145C17.8892 37.7233 17.9015 37.9335 18.0124 38.0445C18.1349 38.167 18.3191 38.1537 18.4426 38.0445Z" fill="#FAB9C3"/>
<path d="M24.7167 37.2487C24.7104 37.1115 24.6243 36.9587 24.5337 36.8972C24.1913 36.6587 23.5381 36.7139 23.1781 36.725C22.4988 36.7458 21.583 36.765 21.692 37.6637C21.7959 38.5183 22.7033 38.947 23.4942 38.8715C24.3482 38.7905 24.7705 38.0346 24.7167 37.2487Z" fill="#483B38"/>
<path d="M32.8974 22.7132C33.7242 22.7257 34.6766 22.6264 35.4422 22.9999C36.358 23.4467 36.8497 24.4119 36.9092 25.3885C36.9992 26.8629 36.9251 28.3382 37.0792 29.8124C37.1197 30.1975 37.7283 30.2016 37.6876 29.8124C37.5755 28.7387 37.5472 27.6579 37.5296 26.5791C37.5157 25.7147 37.5873 24.8732 37.2205 24.0659C36.379 22.2138 34.6836 22.1325 32.8974 22.1048C32.5058 22.0988 32.5055 22.7069 32.8974 22.7132Z" fill="#483B38"/>
<path d="M9.65833 24.8037C9.66267 27.8916 9.70993 30.9797 9.74007 34.0671C9.75381 35.4707 9.76466 36.8743 9.77166 38.2779C9.78009 40.0632 9.81313 42.0279 10.9647 43.5021C11.9396 44.7504 13.0078 45.3791 14.5621 45.5958C16.6081 45.8811 18.6314 45.7974 20.6865 45.7313C22.9716 45.6576 25.2496 45.8707 27.5357 45.8324C29.2347 45.8039 30.9211 45.8898 32.6182 45.8946C34.424 45.9004 35.9674 45.5623 37.1511 44.0553C38.1535 42.78 37.8195 41.0682 37.9143 39.5595C37.9386 39.1686 37.3302 39.1701 37.3059 39.5595C37.2176 40.9655 37.5651 42.6425 36.5767 43.7994C35.3265 45.2624 33.7551 45.3113 31.9881 45.28C30.5512 45.2546 29.1269 45.1963 27.6878 45.2216C25.6047 45.2583 23.5303 45.0736 21.4492 45.1042C19.6518 45.1305 17.8622 45.2824 16.0648 45.1481C15.1951 45.083 14.2634 45.0355 13.4339 44.7459C12.6285 44.4647 11.9678 43.7859 11.4528 43.1279C10.3067 41.6645 10.3853 39.6733 10.3788 37.9099C10.3742 36.6291 10.3607 35.3482 10.3484 34.0671C10.3183 30.9797 10.271 27.8916 10.2664 24.8037C10.2657 24.4124 9.6576 24.4119 9.65833 24.8037Z" fill="#483B38"/>
<path d="M11.7718 26.9435C16.1459 23.9914 20.3538 20.8589 24.9749 18.2863C24.8358 18.2499 24.6972 18.2137 24.5585 18.1771C25.3781 19.3535 26.0178 20.6055 26.6669 21.8801C26.8449 22.2287 27.3698 21.9213 27.1926 21.5731C26.543 20.2983 25.9038 19.0471 25.0839 17.8704C24.9885 17.7334 24.8209 17.676 24.6678 17.7611C20.0468 20.334 15.8391 23.4662 11.4646 26.4181C11.1418 26.636 11.4461 27.1631 11.7718 26.9435Z" fill="#483B38"/>
<path d="M37.8542 33.0353C36.0318 32.7267 33.8226 32.8725 32.7636 34.64C31.8193 36.2155 32.3322 38.5865 34.0377 39.3494C35.0468 39.8004 36.1299 39.8081 37.2136 39.7278C38.3428 39.6441 38.953 39.3003 39.2108 38.1252C39.4659 36.9613 39.4662 35.4225 39.2993 34.2448C39.1691 33.3254 38.6193 33.1021 37.7735 33.0247C37.3838 32.989 37.386 33.5974 37.7735 33.6331C38.9875 33.744 38.7163 35.2828 38.7143 36.0829C38.7131 36.4415 38.7216 36.8012 38.7042 37.1593C38.6656 37.954 38.6622 38.2026 38.0495 38.6986C37.4909 39.151 37.2003 39.1358 36.5092 39.1527C36.1273 39.1621 35.7415 39.1708 35.3627 39.1119C34.721 39.0126 33.9699 38.7647 33.505 38.2909C32.5687 37.3372 32.8287 35.2621 33.7288 34.41C34.7936 33.4018 36.3334 33.3914 37.6924 33.622C38.0756 33.6871 38.24 33.1009 37.8542 33.0353Z" fill="#483B38"/>
<path d="M34.9405 34.8066C34.0124 34.8237 33.3606 35.6284 33.4754 36.5439C33.6087 37.6073 34.4782 38.1498 35.5033 38.0326C36.3839 37.9323 36.97 36.8591 36.7369 36.0412C36.5051 35.2276 35.7642 34.7297 34.9405 34.8066C34.6506 34.8339 34.648 35.2901 34.9405 35.2631C35.3969 35.2201 35.7352 35.333 36.0277 35.6884C36.4861 36.2452 36.4029 37.1065 35.7282 37.4747C35.1392 37.7963 34.3338 37.5089 34.0553 36.916C33.7189 36.2001 34.0751 35.2785 34.9405 35.2631C35.2337 35.2573 35.2346 34.8013 34.9405 34.8066Z" fill="#483B38"/>
<path d="M17.7623 25.4726C18.9943 24.6282 20.306 23.9079 21.5476 23.0782C21.772 22.9285 22.065 22.6213 22.3249 22.5355C22.703 22.4105 22.9912 22.5663 23.3671 22.5931C23.52 22.6042 23.6868 22.5769 23.853 22.5492C24.1799 22.4952 24.503 22.4409 24.7063 22.6806C24.8963 22.9049 25.218 22.581 25.0292 22.358C24.9272 22.2379 24.8252 22.1178 24.7234 21.9975C24.6528 21.9141 24.5358 21.9237 24.4471 21.9618C23.8578 22.2152 23.3898 22.1431 22.8074 22.0303C22.6483 21.9992 22.5388 21.9129 22.3867 21.9389C21.9512 22.0134 21.2671 22.7204 20.9008 22.9565C19.7849 23.675 18.6273 24.3282 17.5321 25.0786C17.2914 25.2435 17.5193 25.6392 17.7623 25.4726Z" fill="#483B38"/>
<path d="M18.1417 25.2177C19.2615 24.4801 20.4326 23.8233 21.5476 23.0782C21.7721 22.9285 22.065 22.6213 22.325 22.5354C22.4308 22.5005 22.5294 22.4875 22.6252 22.4875C22.8711 22.4875 23.0963 22.5735 23.3671 22.5931C23.3907 22.5948 23.4149 22.5957 23.4392 22.5957C23.5716 22.5957 23.7127 22.5723 23.853 22.5492C23.9936 22.5258 24.1332 22.5024 24.2629 22.5024C24.4223 22.5024 24.5662 22.5376 24.6786 22.6502C24.6781 22.6505 24.6779 22.6509 24.6769 22.6512C22.4913 23.5183 20.2954 24.3781 18.146 25.216C18.1458 25.216 18.1458 25.216 18.1458 25.216C18.1443 25.2168 18.1434 25.217 18.1417 25.2177Z" fill="#E4CAB0"/>
<path d="M13.5923 27.0105C13.58 27.0084 13.5701 27.0084 13.5576 27.0084C13.5489 27.0081 13.5402 27.0074 13.5315 27.0071C13.3095 26.9968 13.0852 26.9847 12.8615 26.9662C12.9222 26.7361 13.1098 26.5529 13.3476 26.4603C14.5337 25.9997 15.7005 25.4921 16.8456 24.9366C17.9212 24.4148 18.9612 23.819 20.0557 23.3353C20.3048 23.2251 20.5556 23.1192 20.8075 23.0163C19.7205 23.7112 18.5969 24.3492 17.5321 25.0786C17.3833 25.1804 17.4134 25.3704 17.5157 25.4615C16.9546 25.6793 16.3966 25.8958 15.8437 26.1097C15.3436 26.3031 14.8479 26.4945 14.3567 26.6843C14.3376 26.6915 14.3186 26.699 14.2995 26.7062C14.0632 26.7974 13.8284 26.888 13.5942 26.978L13.5923 27.0105ZM25.0858 22.4889C25.0817 22.4448 25.0641 22.3995 25.0292 22.358C24.9272 22.2379 24.8252 22.1178 24.7234 21.9975C24.6841 21.9512 24.6308 21.9336 24.5756 21.9336C24.5317 21.9336 24.4866 21.9449 24.4471 21.9618C24.1536 22.0877 23.8906 22.1335 23.6285 22.1335C23.4684 22.1335 23.3085 22.1164 23.1424 22.0903C23.269 22.0385 23.3955 21.9864 23.5217 21.9329C24.3883 21.5668 25.2363 21.1572 26.066 20.7135C26.2664 21.0935 26.462 21.4771 26.6585 21.863C26.1357 22.0725 25.6108 22.2806 25.0858 22.4889Z" fill="#7FB145"/>
<path d="M26.6587 21.8632L26.6585 21.8629C26.462 21.4771 26.2664 21.0935 26.066 20.7135C26.2445 20.618 26.4222 20.5208 26.5989 20.4225C26.7957 20.7964 26.9888 21.1736 27.1825 21.5533C27.1858 21.5601 27.189 21.5666 27.1926 21.5731C27.1928 21.5738 27.1931 21.5746 27.1933 21.575C27.2044 21.597 27.2116 21.6184 27.2174 21.6399C27.1253 21.6766 27.0332 21.7134 26.9411 21.7501C26.847 21.7877 26.7528 21.8256 26.6587 21.8632Z" fill="#423734"/>
<path d="M17.5157 25.4615C17.4135 25.3704 17.3833 25.1804 17.5321 25.0786C18.5969 24.3492 19.7206 23.7112 20.8075 23.0163C21.582 22.6989 22.3672 22.4069 23.1424 22.0903C23.3085 22.1164 23.4684 22.1335 23.6285 22.1335C23.8906 22.1335 24.1537 22.0877 24.4471 21.9618C24.4867 21.9449 24.5317 21.9336 24.5756 21.9336C24.6309 21.9336 24.6841 21.9512 24.7234 21.9975C24.8252 22.1178 24.9272 22.2379 25.0292 22.358C25.0642 22.3995 25.0818 22.4448 25.0859 22.4889C25.0856 22.4889 25.0856 22.4889 25.0856 22.4889C25.02 22.5149 24.9544 22.5412 24.8886 22.567C24.8187 22.5948 24.7488 22.6225 24.6786 22.6502C24.5662 22.5376 24.4223 22.5024 24.2629 22.5024C24.1332 22.5024 23.9936 22.5258 23.853 22.5492C23.7126 22.5723 23.5716 22.5957 23.4392 22.5957C23.4149 22.5957 23.3907 22.5948 23.3671 22.5931C23.0963 22.5735 22.8711 22.4875 22.6252 22.4875C22.5294 22.4875 22.4308 22.5005 22.325 22.5354C22.065 22.6213 21.7721 22.9285 21.5476 23.0782C20.4326 23.8233 19.2614 24.4801 18.1417 25.2177C17.9919 25.2761 17.8419 25.3344 17.6924 25.3928C17.6336 25.4155 17.5748 25.4386 17.5162 25.4613C17.5159 25.4613 17.5159 25.4613 17.5159 25.4613C17.5159 25.4613 17.5159 25.4613 17.5157 25.4615Z" fill="#423734"/>
<path d="M32.8986 22.4091C33.5171 24.0063 34.0926 25.6199 34.5652 26.889C34.4051 26.8627 34.2631 26.8502 34.1454 26.8502C33.4522 26.8564 32.7524 26.8646 32.0488 26.8769L32.0467 26.7713C31.7954 26.3356 31.4487 25.4497 31.2177 24.8536C30.658 25.0687 30.0617 25.1478 29.4816 24.9954C28.9017 24.8416 28.5064 24.4338 28.178 23.8281C25.3248 24.884 22.4819 25.9667 19.647 27.0732V27.1241C19.3087 27.1282 18.9699 27.1323 18.6292 27.1361C17.0293 27.1523 15.1941 27.0816 13.5923 27.0105L13.5942 26.978C14.9264 26.4653 16.2994 25.9341 17.6924 25.3928C20.0547 24.4727 22.48 23.5241 24.8886 22.567C25.5743 22.2955 26.2596 22.0238 26.9411 21.7501C28.5935 21.0913 30.2259 20.4345 31.8157 19.7859C32.1827 20.6129 32.5477 21.509 32.8964 22.4091H32.8986Z" fill="#89C04B"/>
<path d="M32.0467 26.7713L32.0488 26.8769C28.1455 26.9396 24.0738 27.0652 19.647 27.1241V27.0732C22.4819 25.9667 25.3248 24.884 28.178 23.8281C28.5064 24.4338 28.9017 24.8416 29.4816 24.9954C30.0617 25.1478 30.658 25.0687 31.2177 24.8536C31.4487 25.4497 31.7954 26.3356 32.0467 26.7713Z" fill="#F5DBBE"/>
<path d="M34.3671 26.3527C34.3106 26.2006 34.2535 26.0441 34.1951 25.8849C34.2101 25.9264 34.2255 25.9676 34.2405 26.0091C34.2834 26.1256 34.3256 26.2399 34.3671 26.3527Z" fill="#A47F5D"/>
<path d="M14.3567 26.6843C14.8479 26.4945 15.3436 26.303 15.8437 26.1097C15.3439 26.303 14.8479 26.4947 14.3567 26.6843Z" fill="#74A543"/>
<path d="M18.1542 27.1386C16.9476 27.1386 15.6387 27.0959 14.4133 27.0455C14.3615 26.9358 14.3429 26.8084 14.3567 26.6843C14.8478 26.4947 15.3438 26.303 15.8437 26.1097C18.0753 26.0436 20.3072 25.9915 22.5395 25.9537C21.5743 26.324 20.6103 26.6973 19.647 27.0732V27.1241C19.3087 27.1282 18.9699 27.1323 18.6292 27.1361C18.4727 27.1378 18.3143 27.1386 18.1542 27.1386ZM34.5652 26.889C34.4051 26.8627 34.2631 26.8502 34.1454 26.8502C33.4522 26.8564 32.7525 26.8646 32.0488 26.8769L32.0467 26.7713C31.9215 26.5545 31.773 26.2264 31.6269 25.8777C32.4826 25.8782 33.3391 25.8804 34.1951 25.8849C34.2535 26.0441 34.3106 26.2006 34.367 26.3527C34.435 26.5374 34.5011 26.7163 34.5652 26.889Z" fill="#7FB145"/>
<path d="M19.647 27.1241V27.0732C20.6103 26.6973 21.5743 26.324 22.5395 25.9537C25.5165 25.9033 28.4939 25.8777 31.4713 25.8777C31.5234 25.8777 31.575 25.8777 31.6269 25.8777C31.773 26.2264 31.9215 26.5545 32.0467 26.7713L32.0488 26.8769C28.1455 26.9396 24.0738 27.0652 19.647 27.1241Z" fill="#E4CAB0"/>
<path d="M13.676 27.2714C19.7685 24.9233 25.8485 22.5412 31.8965 20.0796C31.7817 20.0333 31.6674 19.9867 31.5529 19.9402C32.5653 22.2418 33.3989 24.6154 34.2728 26.9715C34.4071 27.3356 34.9954 27.1781 34.8592 26.8099C33.967 24.4039 33.1122 21.9833 32.078 19.633C32.0296 19.5231 31.8475 19.4476 31.7347 19.4936C25.6867 21.9548 19.607 24.3369 13.5144 26.685C13.153 26.8246 13.3099 27.4127 13.676 27.2714Z" fill="#483B38"/>
<path d="M19.7072 27.2924C22.1108 26.3551 24.5204 25.4338 26.9374 24.5317C27.159 24.449 27.655 24.1696 27.8672 24.186C28.1595 24.2077 28.077 24.239 28.2815 24.4121C28.5052 24.6014 28.6506 24.8426 28.9115 24.999C29.6385 25.436 30.5124 25.325 31.2784 25.0731C31.1849 25.02 31.0913 24.967 30.9978 24.9139C31.256 25.5806 31.5099 26.2551 31.8489 26.8859C31.9881 27.1446 32.3823 26.9146 32.2429 26.6556C31.9225 26.0593 31.6821 25.4232 31.4378 24.7926C31.3947 24.682 31.2837 24.5918 31.1571 24.6333C29.9373 25.0345 29.0249 24.8221 28.376 23.7126C28.3285 23.6319 28.2115 23.5735 28.118 23.608C25.265 24.6656 22.4209 25.7468 19.586 26.8526C19.3154 26.9582 19.4331 27.3995 19.7072 27.2924Z" fill="#483B38"/>
<path d="M38.0782 33.2704C37.9914 31.8106 37.881 30.2611 37.5342 28.8354C37.2478 27.656 36.2367 27.045 35.1165 26.7101C33.635 26.2674 31.8234 26.5746 30.2968 26.6045C28.4756 26.6401 26.6546 26.6847 24.8336 26.7245C20.9712 26.8097 17.0913 26.9459 13.2323 26.6881C12.2929 26.6254 11.0424 26.5232 10.5054 25.612C9.83023 24.4673 10.7012 23.2931 11.8157 22.9193C12.6801 22.6292 13.7044 22.7361 14.6016 22.7351C15.5871 22.7344 16.5726 22.7462 17.5579 22.7594C17.9492 22.7648 17.9497 22.1564 17.5579 22.1511C15.984 22.1304 14.3885 22.0561 12.8159 22.1477C11.7735 22.208 10.7882 22.5415 10.1239 23.3951C9.58621 24.0861 9.52183 25.0268 9.9221 25.8025C10.4309 26.7901 11.5425 27.1289 12.5781 27.2444C15.8046 27.6042 19.1283 27.4445 22.3662 27.3838C25.5977 27.3228 28.8284 27.2319 32.0597 27.181C33.5882 27.1571 35.9934 26.9022 36.8149 28.5884C37.0561 29.084 37.0686 29.7287 37.1506 30.2701C37.3018 31.2664 37.41 32.2647 37.4698 33.2704C37.4928 33.6593 38.1014 33.662 38.0782 33.2704Z" fill="#483B38"/>
<path d="M41.7945 25.8017C41.5567 25.1731 41.591 24.449 41.8357 23.7903C42.2413 22.7004 43.2236 21.7899 44.505 21.7899C44.5776 21.7899 44.6509 21.7928 44.7256 21.7988C44.9597 21.8176 45.2038 21.8668 45.4548 21.9502C45.4623 21.9529 45.47 21.9553 45.4779 21.958C45.5387 21.9879 45.5975 22.019 45.6544 22.0513C45.4495 22.0168 45.2416 21.9989 45.0335 21.9989C44.5604 21.9989 44.0876 22.0908 43.6507 22.2811C43.0657 22.5354 42.6705 22.9813 42.3585 23.5272C42.058 24.0531 41.8695 24.6501 41.8181 25.2537C41.8048 25.4121 41.7863 25.6105 41.7945 25.8017Z" fill="#E9B739"/>
<path d="M41.8357 23.7903C42.2413 22.7001 43.2231 21.7899 44.505 21.7899C43.2236 21.7899 42.2413 22.7004 41.8357 23.7903Z" fill="#423734"/>
<path d="M27.2099 10.2382C25.5886 9.97879 24.9378 8.64391 25.0646 7.34279C25.0646 7.34279 25.0646 7.34255 25.0646 7.34207C25.0646 7.34183 25.0646 7.34159 25.0646 7.3411C25.1992 5.97271 26.1931 4.6429 27.8224 4.6429C27.8364 4.6429 27.8499 4.6429 27.8638 4.64314C28.0225 4.64555 28.1877 4.66026 28.3579 4.68871C28.3594 4.68895 28.3608 4.68919 28.3623 4.68968C28.363 4.68968 28.3639 4.68992 28.3644 4.69016C28.3868 4.69643 28.4083 4.70366 28.4305 4.71017C27.0698 5.01351 25.8304 5.81357 25.5136 7.25599C25.3549 7.9784 25.3528 8.90674 25.884 9.4799C26.2403 9.86401 26.7163 10.0789 27.2099 10.2382Z" fill="#E9B739"/>
<path d="M25.0646 7.3411C25.1987 5.97271 26.1929 4.6429 27.8224 4.6429C26.1931 4.6429 25.1992 5.97271 25.0646 7.3411ZM28.3623 4.68968C28.3608 4.68919 28.3594 4.68895 28.3579 4.68871C28.3594 4.68895 28.3606 4.68919 28.3623 4.68968Z" fill="#423734"/>
<path d="M7.72861 18.3755C7.89668 18.1363 8.02254 17.8689 8.08234 17.5914C8.23305 16.8955 7.97697 15.9505 7.6664 15.346C7.36499 14.7606 6.85453 14.3123 6.27076 13.9728C5.97562 13.8011 5.66312 13.7394 5.34556 13.7394C4.98556 13.7394 4.61832 13.8185 4.26193 13.9055C4.25132 13.9082 4.24096 13.9096 4.23035 13.9116L4.2424 13.9031C4.688 13.6632 5.13216 13.5573 5.55582 13.5573C5.81961 13.5573 6.07521 13.5981 6.31923 13.6733C6.32019 13.6736 6.32091 13.6738 6.32212 13.6743C6.32236 13.6745 6.3226 13.6745 6.32284 13.6748C6.32357 13.6748 6.32405 13.675 6.32477 13.675C6.3255 13.6753 6.32622 13.6757 6.3267 13.6757C6.32718 13.676 6.32718 13.676 6.32742 13.676C8.20749 14.2624 9.35477 16.8808 7.72861 18.3755Z" fill="#E9B739"/>
<path d="M4.24237 13.9031C4.68797 13.663 5.13189 13.5573 5.55579 13.5573C5.81958 13.5573 6.07541 13.5981 6.31919 13.6733C6.07517 13.5981 5.81958 13.5573 5.55579 13.5573C5.13213 13.5573 4.68797 13.6632 4.24237 13.9031ZM6.32739 13.676C6.32715 13.676 6.32715 13.676 6.32667 13.6757C6.32715 13.676 6.32739 13.676 6.32739 13.676ZM6.32209 13.6743C6.32088 13.6738 6.32016 13.6736 6.31919 13.6733C6.31992 13.6736 6.32112 13.6738 6.32209 13.6743Z" fill="#423734"/>
</svg>
